<?xml version="1.0" encoding="utf-8"?><!DOCTYPE svg PUBLIC "-//W3C//DTD SVG 1.1//EN" "http://www.w3.org/Graphics/SVG/1.1/DTD/svg11.dtd"><svg version="1.1" id="Contours" xmlns="http://www.w3.org/2000/svg" xmlns:xlink="http://www.w3.org/1999/xlink" x="0px" y="0px" width="951.895020px" height="300px" viewBox="0.000000 -0.000000 951.895020 84.022514" enable-background="new 0 0 951.895020 951.895020" xml:space="preserve" stroke="black" fill="none" stroke-linecap='round' stroke-linejoin='round'><path class="selected"  fill="#000000" opacity="1.000000" stroke="none" 
 	d="
M630.675350 35.272515 C631.120724 35.993836 631.618526 36.641777 631.462948 36.908165 C630.358700 38.799126 628.859982 40.499329 628.002682 42.483193 C627.228573 44.274605 627.109371 46.348984 626.701412 48.298577 C628.546261 47.602982 630.697506 47.296807 632.175106 46.134339 C635.739681 43.329979 638.922115 40.044365 642.417049 37.143746 C643.206417 36.488663 644.641659 36.611809 645.779537 36.376717 C645.828121 37.413529 646.246822 38.628006 645.851376 39.451653 C644.911129 41.410195 643.488216 43.132057 642.465145 45.058350 C642.071285 45.799927 642.233028 46.836602 642.141659 47.738838 C643.161739 47.574555 644.553829 47.776436 645.137936 47.183022 C647.759151 44.519898 649.931332 41.379448 652.726437 38.939049 C653.947872 37.872589 656.598568 37.262970 658.040890 37.841141 C663.289730 39.945168 667.549068 38.891449 671.412350 35.059784 C671.847836 34.627823 672.432064 34.105515 672.978390 34.067147 C675.388546 33.897904 677.810055 33.890549 680.227413 33.824555 C678.945492 35.238457 677.806332 36.826607 676.346310 38.023262 C674.408688 39.611412 672.041378 40.702500 670.226620 42.400406 C669.482418 43.096657 669.698605 44.819321 669.477901 46.075051 C670.542110 46.057534 671.743526 46.357170 672.646236 45.966530 C676.181026 44.436837 679.615536 42.676415 683.098446 41.025360 C689.169674 38.147400 691.154964 32.249298 694.011837 26.835076 C697.349178 20.510247 701.268063 14.484101 705.130672 8.453957 C705.664913 7.619866 707.600460 6.881005 708.385006 7.229355 C709.212154 7.596596 709.697079 9.279740 709.879330 10.457962 C710.583858 15.012375 708.743282 18.836594 706.084835 22.356194 C704.929867 23.885361 703.400082 25.232163 702.632687 26.929497 C701.515804 29.399811 699.515133 32.967873 700.452999 34.522667 C701.897884 36.918083 705.217098 37.400719 708.820980 36.226044 C713.437435 34.721344 718.528255 34.641335 723.429989 34.080941 C724.068295 34.007973 724.916988 34.616432 725.413876 35.147301 C725.570004 35.314026 725.045223 36.561829 724.573483 36.797814 C722.234859 37.967690 719.886959 39.236214 717.393124 39.945107 C714.966427 40.634918 712.192379 41.417778 709.862240 40.885140 C703.019711 39.321007 700.061703 44.153206 696.324154 48.072541 C691.950802 52.658478 690.413692 52.497269 686.719601 47.275093 C685.102596 44.989167 683.533016 45.083191 681.118221 46.195313 C677.633724 47.800057 673.918575 49.008431 670.191769 49.950089 C667.158993 50.716370 665.391415 49.287491 665.942318 45.932755 C666.339291 43.515564 665.023006 43.627747 663.121761 42.829918 C654.945065 39.398705 651.870419 46.902222 646.670834 49.776840 C645.315060 50.526352 643.885006 51.167893 642.616451 52.043518 C639.491024 54.200783 638.939816 52.486199 638.910030 49.736000 C638.900814 48.889298 638.709713 48.044564 638.601864 47.198921 C637.797176 47.552582 636.961605 47.849770 636.193722 48.270462 C633.881710 49.537117 631.722469 51.397835 629.258480 51.968849 C627.408138 52.397652 624.676205 51.757500 623.291622 50.522637 C622.330013 49.665032 622.891415 46.985810 622.958675 45.127198 C623.006588 43.806328 623.365047 42.496704 623.584896 41.182061 C622.349361 41.311226 621.113827 41.440117 619.878292 41.569634 C618.441097 41.720299 617.006588 41.967926 615.566341 42.007454 C602.483822 42.366448 589.322811 41.953080 576.347897 43.317101 C569.319088 44.056038 562.473446 47.683693 558.766415 54.714005 C554.732662 62.364144 550.863888 70.101311 546.927608 77.802819 C546.576839 78.489022 546.418514 79.361138 545.895321 79.855171 C544.341366 81.322502 542.649776 82.644005 541.011959 84.022515 C540.649776 82.287438 540.133663 80.568291 539.952267 78.814522 C539.200985 71.551796 544.256588 66.886299 547.865292 61.615204 C552.498531 54.847718 557.333920 48.217873 561.908566 41.412049 C562.501827 40.529488 562.060787 38.951760 562.098873 37.696045 C561.156246 38.189675 560.176205 38.623757 559.278133 39.188271 C556.760555 40.770867 554.360470 42.564232 551.744930 43.957016 C550.416012 44.664681 548.187496 45.493149 547.283077 44.890396 C541.914486 41.312859 537.606747 45.208008 532.969784 46.516335 C528.872555 47.672371 528.156429 47.094658 528.675961 42.726418 C528.753475 42.074356 528.475704 40.986527 528.028500 40.760422 C527.403378 40.444390 526.244625 40.445900 525.699032 40.841858 C523.639034 42.336998 521.769344 44.091194 519.757992 45.657959 C518.678646 46.498688 517.455746 47.155197 516.297665 47.894844 C516.173580 46.389397 515.940487 44.882798 515.956539 43.378845 C515.971981 41.925324 516.244198 40.474518 516.403622 39.022499 C514.698910 39.734467 512.726864 40.115959 511.348202 41.231056 C508.900143 43.211075 506.881954 45.713707 504.532345 47.829361 C503.785458 48.501923 502.557247 48.639916 501.549252 49.022515 C501.341305 47.966408 500.624752 46.637856 501.018002 45.903832 C502.346127 43.424919 504.092892 41.173081 505.624691 38.798989 C506.104733 38.055062 506.411434 37.199250 506.797421 36.394646 C506.015682 36.270607 505.220516 35.986473 504.454403 36.050408 C501.254269 36.317513 498.069576 36.795754 494.866726 37.000046 C488.453701 37.409081 482.032772 37.695473 475.614559 38.021218 C462.393429 38.692246 449.167751 39.289940 435.956753 40.120926 C434.583462 40.207306 433.286739 41.645317 431.970760 42.481713 C428.275875 44.830040 424.665615 47.328240 420.848812 49.456795 C419.832302 50.023697 417.909115 49.907524 416.944851 49.276161 C416.355038 48.889977 416.847347 46.922051 416.761776 45.670777 C416.701046 44.782593 416.486782 43.904900 416.341061 43.022515 C414.995968 43.395729 413.364407 43.406510 412.354824 44.204338 C407.760921 47.834740 402.434414 48.750366 396.831753 49.046517 C392.947323 49.251831 392.325832 47.526696 393.991116 44.495247 C395.686337 41.409355 394.591091 41.866905 391.817959 41.876236 C381.568691 41.910698 371.314571 41.040718 361.068081 41.136025 C354.506527 41.197068 347.956570 42.370049 341.398708 43.016960 C337.707211 43.381111 334.014187 43.745804 330.314663 44.009133 C324.900326 44.394524 319.425747 45.318138 314.075314 44.860810 C307.615536 44.308670 303.114651 47.423691 298.511349 50.931374 C293.822018 54.504601 288.444088 55.532082 282.714260 54.980507 C281.520718 54.865616 279.806698 54.567536 279.304379 53.753899 C275.578274 47.718262 271.172573 50.967667 266.850704 52.595726 C264.688351 53.410294 262.567654 54.632790 260.341274 54.876091 C258.842922 55.039833 256.325710 54.211968 255.818356 53.111367 C255.101650 51.556542 255.786922 49.337479 255.936214 47.407257 C256.049435 45.943161 256.261562 44.486718 256.429684 43.026863 C254.958492 43.495148 253.162106 43.587616 252.089138 44.516091 C250.290401 46.072602 249.045559 48.250847 247.380978 49.988663 C246.571804 50.833466 245.340420 51.273857 244.300137 51.897301 C243.972683 50.641579 243.463284 49.400200 243.362820 48.126572 C243.230923 46.454415 243.421230 44.756829 243.473019 43.070183 C241.766171 43.745240 239.772732 44.067589 238.414257 45.171387 C235.863522 47.243874 233.757229 49.854981 231.294109 52.049012 C230.596874 52.670098 229.303326 52.621750 228.283260 52.880425 C228.084911 51.840157 227.522976 50.701584 227.771587 49.782173 C228.165859 48.324074 229.056973 46.986687 229.824917 45.648155 C230.326092 44.774590 230.981228 43.989365 231.567379 43.164559 C230.225338 42.783875 228.526913 41.682686 227.599972 42.141182 C222.190136 44.817162 216.713634 47.496140 211.746120 50.886803 C207.451412 53.818215 204.659420 54.260529 200.601376 51.344506 C199.639721 50.653481 197.857006 50.715134 196.552181 50.961434 C191.790340 51.860298 187.102139 53.175965 182.324093 53.952439 C179.324123 54.439949 176.213039 54.245323 175.925350 49.969841 C174.657238 50.088852 172.960766 49.723412 172.190014 50.404915 C166.894375 55.087319 161.923260 60.139878 156.581326 64.765694 C153.120129 67.762902 149.372341 70.524071 145.415722 72.806404 C143.881283 73.691551 140.416973 73.780434 139.609280 72.786965 C138.354229 71.243233 137.586330 67.944496 138.415142 66.296578 C142.383114 58.407219 146.998379 50.845413 151.275188 43.107270 C151.939968 41.904496 152.044109 40.391861 152.407497 39.022515 C151.153515 39.615776 149.645107 39.940148 148.687267 40.846413 C142.925411 46.297974 137.077694 51.608719 128.391354 50.922295 C126.516521 50.774132 124.256664 49.800041 123.006542 48.440811 C117.854351 42.838883 110.927364 42.480355 105.508015 47.956002 C102.594227 50.900063 99.996021 54.783280 95.650013 49.491242 C95.171276 48.908280 92.703159 49.545899 91.402798 50.147316 C89.434116 51.057823 87.803646 53.039696 85.802120 53.445786 C83.697147 53.872864 80.531818 53.741249 79.294575 52.450127 C78.084728 51.187592 77.734463 47.457085 78.739796 46.034722 C81.397961 42.273873 79.018291 42.107720 76.494534 42.066689 C68.940800 41.943871 61.383778 42.022515 53.828045 42.022515 C41.439873 42.022515 29.051697 42.022515 16.663525 42.022515 C12.607138 42.022515 8.532709 42.242287 4.503483 41.911476 C2.949459 41.783890 1.498121 40.405617 0.000000 39.597161 C1.427744 38.738945 2.823044 37.211190 4.288927 37.140168 C10.164511 36.855477 16.061985 37.022515 21.951363 37.022515 C37.281849 37.022515 52.613064 36.937264 67.942432 37.068398 C73.362919 37.114769 78.786633 37.610962 84.184849 38.144760 C84.718449 38.197533 85.680218 40.187439 85.411770 40.876236 C84.687618 42.734322 83.072681 44.266411 82.461529 46.139984 C82.046146 47.413384 82.727619 49.044571 82.918591 50.515755 C84.076679 50.028824 85.484249 49.810349 86.348469 49.007210 C89.600086 45.985443 92.636379 42.733155 95.844845 39.662857 C96.568157 38.970696 97.660458 38.664131 98.582897 38.180062 C99.006641 39.317955 99.561176 40.430527 99.788807 41.606392 C99.878071 42.067482 98.927937 42.703514 98.981815 43.202576 C99.156841 44.823494 99.577374 46.417900 99.903378 48.022515 C100.910694 46.903954 102.082386 45.892601 102.894855 44.646942 C105.443073 40.740135 107.709324 37.646920 113.585339 39.789139 C117.616344 41.258736 122.382793 40.381127 125.388027 36.097939 C125.946850 35.301483 126.705914 34.565155 127.527889 34.047890 C130.759502 32.014283 133.700329 32.948845 135.136593 36.080628 C135.588100 37.065155 133.381725 39.466011 132.116802 40.990349 C130.534649 42.896981 128.668743 44.568154 126.925350 46.340981 C129.490536 46.234833 132.481762 46.937172 134.533260 45.856156 C138.960308 43.523354 142.911175 40.283921 147.043118 37.395737 C148.342861 36.487229 149.505917 35.342896 150.889477 34.601052 C160.668285 29.357750 164.127544 18.905945 170.563580 10.912537 C172.682659 8.280701 174.765087 5.550362 177.266582 3.315308 C179.657711 1.178864 183.286831 -0.539428 185.518688 2.495667 C187.248348 4.847824 187.624783 8.691239 187.420116 11.793740 C187.285564 13.833054 185.280972 15.947686 183.711193 17.659333 C176.835583 25.156258 169.634151 32.265206 159.869793 36.077431 C158.737408 36.519532 157.535686 37.527359 156.982494 38.592919 C152.216442 47.772904 147.535519 56.998856 142.998104 66.293556 C142.442196 67.432335 142.881115 69.056786 142.858990 70.456154 C143.919445 69.773262 145.077633 69.204109 146.025311 68.389931 C155.866650 59.934899 165.544323 51.282311 175.569302 43.052300 C178.615520 40.551506 182.535610 39.057099 186.190517 37.399628 C187.027096 37.020256 188.421917 37.871895 189.559811 38.156975 C189.061337 39.112160 188.780819 40.318627 188.023571 40.975479 C185.737804 42.958214 183.143002 44.595574 180.944225 46.660935 C180.292873 47.272782 180.553585 48.855622 180.396343 49.993515 C181.318783 50.090416 182.250317 50.323815 183.162258 50.263108 C192.330120 49.652756 199.740765 45.055603 206.752316 39.662728 C210.720257 36.610817 214.295773 36.251305 218.868801 39.060448 C220.763119 40.224106 224.449734 38.925209 227.166759 38.181694 C230.727993 37.207176 234.377285 34.118943 236.649334 40.025566 C236.798519 40.413361 239.555843 40.404602 240.551693 39.748307 C243.771572 37.626290 246.232998 36.977761 248.065121 41.360031 C248.292782 41.904640 250.543148 42.012429 251.645321 41.660996 C252.632717 41.346161 253.195766 39.698235 254.182888 39.385086 C256.003963 38.807366 257.998562 38.776665 259.920864 38.518044 C260.119381 40.322510 260.379025 42.123551 260.480648 43.933464 C260.512783 44.505532 259.984402 45.093521 259.950802 45.687699 C259.843166 47.590142 259.847164 49.498902 259.808041 51.405220 C261.474850 50.610985 263.110531 49.740555 264.816921 49.043091 C266.669949 48.285683 268.736355 47.945267 270.443539 46.961182 C272.873318 45.560555 275.064541 43.744568 277.349880 42.095246 C279.788998 40.334931 282.055416 38.213860 284.729458 36.957238 C285.882961 36.415177 287.871517 37.650185 289.480740 38.077889 C288.952389 39.235993 288.557217 40.486595 287.842587 41.515290 C287.453457 42.075486 286.334011 42.097908 285.868679 42.641068 C284.078915 44.730103 279.980648 46.564308 282.521572 49.634873 C283.812679 51.195114 288.006680 51.140671 290.629910 50.588417 C293.226284 50.041802 295.803646 48.293595 297.850155 46.468010 C302.715786 42.127602 308.526394 40.470902 314.712887 40.076332 C327.923031 39.233780 341.145931 38.475075 354.375454 38.088684 C365.421139 37.766083 376.483913 38.063332 387.538692 38.004883 C392.874783 37.976670 397.565456 36.673645 400.223812 31.319084 C400.855892 30.045944 402.313625 29.196617 403.331570 28.096802 C404.161251 27.200318 404.901302 26.220902 405.681087 25.278267 C404.188107 24.859680 402.609921 23.905960 401.218899 24.127510 C397.699154 24.688088 394.301205 26.037560 390.778713 26.546547 C388.944271 26.811615 386.654476 26.428421 385.135220 25.455765 C384.187099 24.848748 384.064327 22.601128 384.030087 21.079422 C384.014950 20.406983 385.137905 19.708939 385.744198 19.022515 C386.517635 19.902245 387.152828 21.005707 388.105953 21.594612 C388.948360 22.115105 390.182339 22.345658 391.178982 22.214562 C396.049343 21.573883 400.951260 21.000931 405.727901 19.906143 C407.585995 19.480271 409.338436 17.949112 410.790554 16.557770 C412.641109 14.784645 413.901089 12.363632 415.837215 10.717858 C419.902157 7.262520 423.555874 8.525612 424.906033 13.674019 C425.971249 17.735977 429.155544 16.996537 432.034603 17.019852 C437.537319 17.064392 439.916195 19.046479 439.903835 23.679619 C439.901760 24.449089 439.615749 25.217804 439.460995 25.986862 C438.989681 25.539307 438.525936 25.083481 438.045925 24.645439 C430.923061 18.145615 424.531643 18.375733 417.444118 24.877907 C414.570400 27.514290 410.685818 29.064163 407.876919 31.751869 C404.546291 34.938729 401.822353 38.775086 398.980007 42.442002 C398.487545 43.077309 398.712276 44.268502 398.605770 45.202935 C399.528194 45.160225 400.581600 45.395310 401.352810 45.031807 C409.040340 41.408310 417.495815 39.403115 424.174252 33.568550 C425.563503 32.354889 429.150295 32.265457 430.971920 33.171173 C440.439938 37.878746 449.932583 35.424935 459.470913 34.034951 C460.123592 33.939835 460.802731 34.039849 461.468655 34.019928 C472.495296 33.690232 483.523861 33.410889 494.547176 32.992729 C498.415401 32.845993 502.278255 32.075363 506.127621 32.179520 C507.419003 32.214463 509.401852 33.866394 509.769711 35.151146 C510.515072 37.754372 510.962154 38.774872 513.196102 36.309159 C514.031185 35.387482 515.246456 34.821701 516.222042 34.013596 C518.785763 31.890053 519.404903 33.530281 519.960812 35.781151 C520.320797 37.238556 521.022091 38.611656 521.570492 40.022515 C522.714413 39.163529 523.871456 38.321343 524.999142 37.441597 C526.640682 36.161072 528.107479 34.515885 529.945919 33.679100 C531.121395 33.144066 532.832882 33.786606 534.304073 33.901238 C534.011349 34.941498 533.782955 36.005593 533.408993 37.015785 C532.982052 38.168816 532.218868 39.234917 531.997005 40.413246 C531.845638 41.216950 532.176449 42.302063 532.686825 42.950112 C532.904110 43.226013 534.281063 42.924355 534.873898 42.513848 C538.515072 39.992661 542.004940 37.244919 545.719418 34.842003 C546.926876 34.060837 548.657589 34.088433 550.148983 33.746132 C549.723934 35.022057 549.329708 36.309304 548.865047 37.570610 C548.432735 38.744187 547.925350 39.890099 547.451046 41.048180 C548.726986 40.755135 550.205929 40.779625 551.244503 40.115402 C556.403194 36.816155 561.406551 33.274002 566.567684 29.978768 C567.433285 29.426125 568.805111 29.666283 569.943050 29.540139 C569.890987 30.580406 569.926754 31.635643 569.752926 32.655129 C569.654049 33.234833 569.149288 33.732643 568.936153 34.307679 C567.920773 37.047058 566.942684 39.800232 565.951351 42.548508 C568.304501 41.706513 570.601925 40.609963 573.023373 40.079933 C577.033566 39.202133 581.105953 38.290436 585.183834 38.110573 C592.335262 37.795151 599.537411 38.410721 606.668819 37.918930 C614.616451 37.370858 622.508907 36.022507 630.675350 35.272515 M180.425350 6.022515 C174.806133 13.308396 169.178585 20.587899 163.599987 27.904755 C163.388699 28.181877 163.651684 28.820595 163.693661 29.290818 C164.452053 29.201386 165.383907 29.365822 165.942623 28.984116 C173.328167 23.938233 179.289471 17.547142 183.951473 9.898331 C185.987469 6.557953 184.884457 5.608467 180.425350 6.022515 M410.925350 25.522515 C414.412197 22.368996 417.911190 19.228707 421.373013 16.047959 C421.903622 15.560410 422.262722 14.886193 422.701168 14.298325 C421.879635 13.873055 421.006802 13.027542 420.248531 13.120156 C419.085690 13.262169 417.679806 13.768769 416.941769 14.613816 C414.211636 17.739846 411.690701 21.051285 409.197903 24.373223 C409.081356 24.528519 409.992702 25.455139 410.925350 25.522515 M421.425350 46.022507 C423.259701 44.854813 425.149349 43.762047 426.895077 42.474213 C427.425289 42.083061 427.943874 41.028023 427.773129 40.502892 C427.571194 39.881760 426.439541 38.974724 426.020321 39.115166 C424.290920 39.694557 422.366512 40.313599 421.144161 41.544228 C420.444912 42.248253 420.958065 44.156464 421.425350 46.022507 M696.425350 43.022515 C696.538021 42.135208 696.650753 41.247895 696.763424 40.360573 C694.971066 40.927521 692.809994 41.068733 691.505367 42.198769 C690.496883 43.072296 690.561581 45.184723 690.149227 46.746353 C691.613216 46.133095 693.107479 45.580673 694.526119 44.876137 C695.080013 44.601074 695.463985 43.983895 696.425350 43.022515 M203.925350 48.522515 C205.641964 52.310814 207.761501 49.139870 208.853649 48.319886 C210.267849 47.258087 210.835369 45.068581 211.767422 43.364594 C210.081844 43.822121 208.287197 44.057045 206.747219 44.811676 C205.631680 45.358330 204.853802 46.594071 203.925350 48.522515 M703.425350 17.022515 C702.999386 17.929856 702.573360 18.837189 702.147396 19.744530 C702.592037 19.818543 703.332943 20.088684 703.434383 19.935494 C704.227596 18.737297 704.898006 17.457848 705.606319 16.203484 C705.046017 16.309830 704.485653 16.416176 703.425350 17.022515 z"/><path class="selected"  fill="#000000" opacity="1.000000" stroke="none" 
 	d="
M929.925350 41.022522 C935.090572 41.022515 939.758602 40.930588 944.419613 41.070954 C946.115597 41.122032 947.980648 41.390915 949.421688 42.187706 C950.528072 42.799454 951.090572 44.394890 951.895016 45.552857 C950.626949 45.709412 949.353024 46.037621 948.091793 45.994660 C939.897213 45.715599 931.704159 45.060921 923.512997 45.094345 C912.320065 45.140015 901.130672 45.806412 889.936459 45.960175 C885.914425 46.015419 881.878170 45.030175 877.856197 45.085816 C867.328304 45.231438 856.799252 46.064339 846.281063 45.911057 C836.828671 45.773300 827.397884 44.382393 817.942379 44.142281 C812.618954 44.007096 807.285763 43.026055 802.042843 46.814324 C796.282955 50.976128 789.149349 52.683235 781.770809 52.028252 C781.274837 51.984230 780.547176 52.239868 780.305233 51.990036 C776.311825 47.866135 772.142696 50.747879 768.500729 52.193733 C765.015011 53.577568 762.110043 53.380616 759.682430 51.117653 C757.059261 48.672463 757.537777 45.451126 759.037716 42.358300 C759.479244 41.448090 759.502987 40.335282 759.718136 39.315316 C758.129269 39.708977 756.330013 39.752770 754.989437 40.559181 C750.163631 43.461945 745.547176 46.712708 740.721493 49.615586 C739.631283 50.271401 737.342220 50.691208 736.787533 50.103501 C735.732357 48.985665 735.419308 47.089623 735.019711 45.462319 C734.808651 44.602852 735.064327 43.628769 735.109249 42.706436 C734.186947 42.839493 733.169369 42.765564 732.357601 43.138916 C726.756954 45.714562 721.204403 48.394654 715.619503 51.005028 C715.071774 51.261025 713.907162 51.452805 713.877926 51.370964 C713.528561 50.393425 712.795650 48.972603 713.199764 48.402558 C715.432552 45.252854 716.937252 42.297768 722.509090 42.515984 C727.311825 42.704087 732.291378 38.528252 737.179012 36.252327 C738.020504 35.860512 738.747494 35.193291 739.610043 34.884072 C740.576900 34.537491 741.637753 34.453255 742.657711 34.254875 C742.600704 35.490296 742.581173 36.729515 742.456234 37.958031 C742.430111 38.214966 741.869381 38.397187 741.802792 38.673569 C741.232967 41.037094 740.720272 43.414406 740.190426 45.787613 C742.152950 44.648407 744.165340 43.586121 746.066647 42.352692 C749.230282 40.300385 752.435726 38.284500 755.412960 35.981041 C758.345028 33.712532 761.082333 31.174591 763.745113 28.590134 C764.288937 28.062363 764.548336 26.278557 764.193661 25.990174 C763.472713 25.403954 762.199398 25.140526 761.231258 25.280510 C758.125423 25.729607 755.074520 26.610344 751.961788 26.934250 C750.639828 27.071808 747.711117 29.370003 748.135189 25.629257 C748.287350 24.286667 750.688839 22.546166 752.337399 22.162239 C755.757015 21.365853 759.464779 21.759346 762.849911 20.878853 C765.060665 20.303810 767.344479 18.713616 768.839962 16.940789 C772.519588 12.578743 775.728207 7.822144 779.204952 3.284523 C780.109005 2.104485 781.150997 0.864830 782.415768 0.184861 C783.251278 -0.264328 784.597530 0.236718 785.715145 0.312340 C785.451839 1.144936 785.352169 2.082146 784.897945 2.792618 C782.533016 6.491516 779.999447 10.084519 777.699276 13.821831 C776.963802 15.016854 776.762691 16.540764 776.317013 17.914177 C777.692074 17.950287 779.106258 18.214142 780.435726 17.985428 C788.817989 16.543473 797.130733 14.852165 805.708065 16.954430 C809.882748 17.977631 811.315060 20.403000 810.883114 24.330948 C810.817623 24.926544 810.303768 25.695801 809.784542 25.949700 C809.350582 26.161927 808.161739 25.881134 808.062313 25.574143 C805.143795 16.560227 797.603329 20.638588 791.969296 20.210167 C787.987179 19.907364 783.879879 21.847222 779.814266 21.913277 C772.818905 22.026940 770.205013 26.866570 768.002621 32.052704 C766.319271 36.016609 765.193966 40.241715 764.130428 44.429383 C763.824276 45.634735 764.219723 47.446999 765.014645 48.336396 C765.463863 48.838997 767.701412 48.437218 768.581844 47.743119 C772.998531 44.261093 777.118587 40.398629 781.580685 36.980355 C783.758480 35.312043 786.361752 34.050431 788.962215 33.156967 C789.985592 32.805359 792.145748 33.614075 792.656429 34.527306 C793.158932 35.425873 792.671749 37.596772 791.838802 38.383232 C789.673702 40.427574 787.042233 41.969475 784.675716 43.813141 C783.668941 44.597473 782.859127 45.634629 781.959774 46.556870 C783.256893 47.045395 784.771969 48.230728 785.814327 47.904671 C790.953671 46.296997 796.313900 44.899498 800.943050 42.275574 C807.514828 38.550545 814.166317 40.321968 820.849300 40.470650 C821.773373 40.491219 822.687130 40.980362 823.611080 41.000305 C840.467098 41.364060 857.322811 41.801827 874.181087 41.988533 C888.898556 42.151543 903.619747 42.087769 918.338131 41.976807 C922.036068 41.948929 925.729733 41.355858 929.925350 41.022522 z"/><path class="selected"  fill="#000000" opacity="1.000000" stroke="none" 
 	d="
M739.175350 21.272515 C740.258724 22.300286 741.259823 23.508454 741.834530 24.893524 C742.036190 25.379723 741.190975 26.300286 740.823849 27.022499 C740.104855 26.436341 738.947140 25.959763 738.767147 25.238991 C738.478939 24.085327 738.839230 22.769692 739.175350 21.272515 z"/></svg>
