<?xml version="1.0" encoding="utf-8"?>
<!-- Generator: Adobe Illustrator 23.0.6, SVG Export Plug-In . SVG Version: 6.00 Build 0)  -->
<svg version="1.1" id="Contours" xmlns="http://www.w3.org/2000/svg" xmlns:xlink="http://www.w3.org/1999/xlink" x="0px" y="0px"
	 viewBox="0 0 1548.9 1548.9" style="enable-background:new 0 0 1548.9 1548.9;" xml:space="preserve">
<path d="M1283.4,1221.6c23.3-26.3,44.1-54.7,62.2-84.8c3.9-6.5,7.4-15.3,2.3-20.8c-16.8-18.1-19.2-45.6-33.4-65.9
	c-6.2-8.8-15-18.2-12.1-28.6c11.9-0.9,23.4-6.5,31.4-15.2c12.8,15.5,25.7,31.3,33.4,49.9c3.9,9.3,6.9,19.9,15.3,25.4
	c10.4-19.8,19.9-40,28.6-60.5c4.2-9.9,15.1-15.6,25.8-16.4c10.7-0.8,21.2,2.5,31.3,6.2c5,1.9,10.9,7.6,7.1,11.3
	c-15.4,15.2-30.8,30.5-46.2,45.7c-3,3-6.1,6.1-7.5,10.2c-1.3,4-0.2,9.2,3.6,11.2c-9.1,1.5-17.1,8-20.5,16.5
	c-3.4,8.5-1.9,18.8,3.7,26.1c25.3,32.8,44.2,70,62.9,107c0.8,1.6,1.6,3.2,1.5,4.9c-0.1,2-1.4,3.6-2.8,5c-9.6,9.6-26.4,10.6-37,2.1
	c-4.9-3.9-8.4-9.4-11.7-14.8c-15.3-24.5-30.7-49-46-73.6c-18.4,24.2-34.8,50-48.8,77.1c-5.7,11-21.3,12.1-33,8.2
	c-8.4-2.9-17.4-10.4-14.8-18.9C1279.4,1226.1,1281.5,1223.8,1283.4,1221.6z"/>
<path d="M334.4,1094.8c-0.2,9-0.4,18-0.6,27c-0.8,33.8-1.5,68.1,7,100.8c3.2,12.5-11.1,25.1-23.5,21.7c-8.9-2.4-15.3-10.7-18-19.5
	s-2.3-18.3-1.9-27.5c0.8-17.9,1.5-35.7,2.3-53.6c0.5-12.4-0.1-27.2-10.7-33.8c3.3,1.2,7.1-1.2,8.7-4.3c1.6-3.1,1.7-6.8,1.7-10.4
	c0-10.7,0-21.5,0.1-32.2c0-9.3,8.8-17,18-17.9s18.3,3.8,24.8,10.4c6.5,6.6,11,14.9,15.3,23.1c4.4,8.4,8.8,16.7,13.2,25.1
	c1.4,2.7,5.4,3,8,1.5c2.6-1.5,4.2-4.3,5.6-7c8.7-16,17.4-32,26.1-48c5.9-10.8,13.8-23,26.1-23.6c3.7-0.2,7.3,0.7,10.8,2.1
	c6.7,2.6,13,6.9,16.3,13.3c3.3,6.4,3.2,14,3,21.2c-0.5,17.5-1,35-1.4,52.4c-0.3,12.5-0.7,25.1-0.9,37.7c-0.4,23.3-0.2,46.5,0.5,69.8
	c0.2,6.4,1.2,14.1,7,16.8c-11.3,9.1-26.4,13.3-40.8,11.3c-1.2-0.2-2.6-0.5-3.2-1.6c-0.9-1.5,0.4-3.4,0.3-5.1
	c-0.3-5.1-10.8-5.7-9.5-10.7c10.1-36.3-6.2-75.5,1.3-112.5c0.8-3.9-9-5-6.5-8.1c7.6-9.3,10.9-21.9,8.8-33.6
	c-12.5,20-21.2,42.4-25.5,65.6c-1.8,9.9-15.4,13.5-24.3,8.9c-9-4.5-14.2-13.9-18.9-22.8C347.3,1119.1,340.8,1106.9,334.4,1094.8z"/>
<path d="M1320.8,880.7c-6.7,9.5-14.2,18.9-24.1,25.1c-9.9,6.2-22.6,8.9-33.4,4.5c-8.1-3.3-14.6-10.4-23.2-12.2
	c-1.4-0.3-2.9-0.5-3.8-1.6c-16-21.5-25.5-47.9-26.9-74.7c6.6-13,10.9-27.2,12.7-41.6c0.3-2.6,0.7-5.5,2.6-7.3
	c8.7-8.4,14.2-19.5,21.1-29.5c8.2-11.7,18.7-21.8,30.6-29.6c4.9-3.2,7.2-9.1,9.6-14.5c7.9-17.1,21.9-32,39.6-38.4
	c17.8-6.4,39.4-3.2,52.7,10.1c9.4,9.4,14,22.6,15.4,35.8c0.5,4.6,3.6,11.1,7.6,8.8c21.8-12.9,49.6-4.6,72.9,5.4
	c16.2,6.9,32.3,14.6,45.5,26.2c13.3,11.6,23.5,27.5,24.9,45c0.5,6.1-1,13.5-6.8,15.5c-4.1,1.4-8.7-0.8-11.5-4.1s-4.2-7.5-5.9-11.5
	c-8.8-21.3-26.8-40.6-49.7-43.4c-3.2-0.4-6.7-0.6-9-2.8c-13.7-12.9-35.5-9.3-53.8-4.7c-7.4,1.8-15.3,3.9-20.4,9.6
	c-2.9,3.2-4.6,7.3-6.3,11.3c-9.9,23.7-19.9,47.4-29.8,71.1c-2,4.9-4.5,10.2-9.4,12.2C1335.9,857.7,1328.8,869.5,1320.8,880.7
	 M1305.9,757.3c-5-2.1-11.2-4.6-15.2-0.9c-1.3,1.3-2.1,3-2.8,4.7c-3.7,8.8-7.4,17.7-11,26.5c-3.6,8.5-7.1,17.1-9.3,26.1
	c-4.8,19.9-2.6,40.7-0.3,61c0.2,1.7,0.4,3.6,1.6,4.8c2.3,2.4,6.4,1.1,9.4-0.6c37.3-20.8,57.9-61.9,76.2-100.5c1.4-3,2.9-6.1,2.5-9.4
	c-0.3-3.3-3.1-6.5-6.4-6C1335.6,765.3,1319.9,763.3,1305.9,757.3 M1319.4,706.4c3.3,1.3,6.9,2.7,8.9,5.7s1.4,7.9-2,9.1
	c-4.5,1.6-7.6,6.6-6.8,11.3c0.8,4.7,5.3,8.6,10,8.6c12.3,0.1,24.6-2.5,35.8-7.6c7.6-3.5,8.8-13.7,8.8-22.1c0-6.4-0.1-12.9-1.9-19
	c-1.8-6.1-5.5-12-11.2-14.9c-6.8-3.6-15.3-2.4-22.2,1.1c-6.8,3.5-12.3,9.1-17.7,14.7c-1.8,1.9-3.7,3.9-4.5,6.4
	C1316,702.2,1316.9,705.4,1319.4,706.4z"/>
<path d="M533.2,721.1c-4.7-15.7-12.2-30-24.2-41c-3.9-3.5-8.3-6.7-13.5-7.6c-6-1-12,1.4-17.4,4.1c-41.7,20.8-67.4,63.4-90.1,104
	c-6.6-34.9-9.7-70.4-9.2-105.9c0.1-7.9,0.4-16,3.3-23.3c4.3-10.9,13.5-18.9,22-26.9c29-27.1,53.3-59.3,71.5-94.5
	c12.8-24.8,22.8-52.5,19.6-80.3c-3.1-27-19.5-52.5-43.6-64.8s-55.5-10.3-76.8,6.6c-15.4,12.2-24.6,30.4-32.1,48.6
	c-26.2,63.7-36.3,133.9-29.1,202.4c0.6,5.3,1.2,10.8-0.4,15.8c-3.5,10.9-15.5,16-26.3,19.7c-53.2,18.5-107.5,36.2-154.9,66.6
	c-47.4,30.4-88.2,75.7-100,130.8c-3.4,15.9,18.3-3.4,20.9-7.1c6.3-9.1,10-19.7,14.5-29.7c15.1-33.3,42.7-59.6,73.7-79
	s65.3-32.6,99.5-45.6c20.6-7.9,41.3-15.8,61.9-23.6c2.8-1.1,6.2-2.1,8.6-0.3c1.8,1.3,2.4,3.6,2.9,5.8c11.8,50.5,23.6,101,35.4,151.5
	c4.9,20.9,11.9,44.6,31.5,53.6c7.2,3.3,16.6,3.8,22.3-1.7c9-8.6,3.2-23.3-0.7-35.2c-8.8-26.8-4-56.7,8-82.3
	c11.9-25.6,30.4-47.5,49.6-68.2c3.4-3.6,7.3-7.5,12.2-7.7c5.9-0.3,10.8,5,12.3,10.6c1.5,5.7,0.3,11.7-0.8,17.4
	c-4,20.3-7.4,40.6-10.4,61.1c-3.2,22.4-5.9,45-4.6,67.6c0.6,11.4,2.4,23.1,8.6,32.6c6.2,9.6,17.6,16.5,28.8,14.2
	c16.3-3.3,23.3-22.4,26.5-38.8c6.5-33.6,9-67.9,7.6-102C539.6,752.8,537.7,736.3,533.2,721.1z M383.6,567.8
	c2.5-24.6,5.1-49.2,7.6-73.8c1.9-18.1,3.7-36.2,8.4-53.8c2.5-9.5,6-19.1,12.4-26.5c6.4-7.5,16.4-12.5,26.1-11
	c7.5,1.2,14,6.1,19,11.9c14.6,16.7,18.7,40.6,15.4,62.6c-3.3,21.9-13.3,42.2-24.4,61.4c-18,31.3-39.6,61-67.5,83.9
	c-0.1-10.8,0.7-21.7,2.4-32.4C382.1,582.7,382.8,575.2,383.6,567.8z"/>
<path d="M936,855c-2.2,13.5-6.8,27.2-16.2,37.2c-9.4,10-24.3,15.6-37.3,11.1c-8.9-3.1-15.8-10.4-21.3-18.1
	c-16-22.4-23.5-50.1-25.1-77.6c-1.6-27.5,2.3-55,7.3-82.1c1.5-8.3-10.3-11.9-18.7-10.9s-19.7,1.5-22.3-6.5
	c-2.8-8.5,8.3-15,17.2-15.5c8.9-0.4,19.6,0.7,25.2-6.4c2-2.5,3-5.8,3.7-8.9c3.4-13.8,4-28,5.7-42.1c1.7-14.5,6.4-27.9,9.8-42
	c3.5-14.6,6.5-29.2,10-43.8c6.6-27.8,13.1-55.6,19.7-83.4c5-21,10-42.2,19.5-61.6c9.5-19.4,24.2-37,43.8-46
	c19.6-9.1,44.6-8.1,61.1,5.8c13.3,11.2,19.5,29,20.1,46.3c0.6,17.3-3.8,34.4-8.8,51c-13.6,45.3-31.4,89.3-53.3,131.2
	c-6.3,12.2-13.2,24.3-23.1,33.8c-5.9,5.6-12.9,10.3-17.4,17.1c-5,7.5-6.3,16.8-7.5,25.7c-3.4,24.8-6.8,49.6-10.1,74.4
	c-1,7.1-2,14.3-2.9,21.4c-5.2,37.9-10.3,75.8-15.5,113.7c7.8-0.4,12.7-8.3,17.2-14.7C921.1,857.7,929.1,851.3,936,855 M963.1,395.3
	c-2.2,4.9-4.2,9.9-5.7,15c-3.7,12.2-4.9,25.1-6.1,37.8c-0.6,6.4-1.2,12.8-1.8,19.2c-4.6,48.7-9.2,97.5-19.4,145.3
	c3.2,2.1,7.1-1.3,9.4-4.4c34.1-45.6,60.4-97,77.2-151.4c4.3-13.8,8-28,7.4-42.4c-0.6-14.4-6-29.2-17.2-38.2
	c-4.5-3.7-10.1-6.3-16-6.3C977.6,369.9,968.5,383.2,963.1,395.3z"/>
<path d="M1052.7,705c-12.8,8.3-25.6,16.5-38.4,24.8c-5.2,3.4-13.5,6.1-16.5,0.7c-1.8-3.2-0.1-7.3,1.8-10.4
	c10.4-17.1,27.7-29.8,47.1-34.6c9.3-2.3,21.4-4.8,23-14.3c11.2-64.3,29.4-127.4,54.2-187.8c9.9-24.1,21.1-48.1,38.8-67.2
	c17.7-19.1,42.9-32.7,68.8-30.8c6.9,0.5,13.8,2.1,19.9,5.4c14.9,8,23.1,25.2,24.4,42c1.3,16.8-3.3,33.6-8.8,49.5
	c-20.3,59.7-53.1,115.1-95.5,161.7c-3.8,4.2-7.7,8.3-10.8,13.1c-6,9.4-8.4,20.5-10.6,31.4c-4.9,23.4-9.7,46.8-14.6,70.2
	c-7.4,35.5-14.7,71-22.1,106.5c-1.2,6-2.5,12.3-0.8,18.2c1.7,5.9,7.5,11.1,13.5,10c5.7-1,9-6.7,12.6-11.3s9.8-8.8,14.7-5.7
	c5.7,3.5,3.3,12.2,0.2,18.2c-5.3,10.2-11.9,21.6-23.2,23.9c-11.7,2.4-23.3-6.1-35.1-4.6c-27.4-20.9-41-56.1-43.7-90.5
	s4.2-68.8,10.5-102.7c0.7-3.9,1.4-8-0.1-11.6C1060.7,705.5,1056,702.9,1052.7,705 M1171.7,510.1c-4.7,35.8-8.3,71.7-10.6,107.7
	c39.4-43.4,69-95.7,85.7-151.9c4-13.3,7.2-27.7,2.7-40.8c-4.5-13.1-19.7-23.4-32.4-17.8c-3.1,1.4-5.8,3.6-8.4,5.9
	c-10.8,10.1-18.5,23.1-23.8,36.9C1177.5,469.4,1174.4,489.8,1171.7,510.1z"/>
<path d="M871.4,1272.4c-7.8-1.7-10.7-11.2-12.1-19.1c-2.4-13.3-4.7-26.5-7.1-39.8c-0.8-4.6-1.7-9.5-4.7-13.1
	c-9.4-11.6-29.1-2.2-42.9-8.1c-9.3,20.1-14.7,42.1-15.7,64.3c-0.1,3.1-1.7,5.9-3.6,8.2c-6.9,8.2-19.9,10.3-29.1,4.8s-13.4-18-9.5-28
	c27.9-70,54.4-140.7,75.6-213c1.2-4.1,5.6-6.3,9.7-7.3c16.3-4.3,36.3,3.3,41.7,19.3c1.8,5.4,1.9,11.2,2.1,16.9
	c0.9,30,4.5,59.9,8,89.7c2.2,18,4.3,36,6.5,54c0.5,4,1.8,9,5.7,9.8c-1.5,13.2,0,26.6,4.3,39.2c1.9,5.4-0.9,11.6-5.3,15.3
	c-4.4,3.7-10.1,5.3-15.7,6.5C876.8,1272.5,874,1273,871.4,1272.4 M834.3,1174.1c1.8,0,3.7,0,5.3-0.9c3.2-1.9,3.2-6.5,2.9-10.2
	c-1.6-15.9-3.2-31.9-4.7-47.8c-0.3-2.6-0.6-5.3-2.2-7.3c-9.1,19-16.6,38.8-22.5,59c-0.4,1.5-0.8,3.1-0.2,4.5c1,2.2,3.9,2.5,6.3,2.5
	C824.2,1174,829.2,1174.1,834.3,1174.1z"/>
<path d="M1482,869.9c1.3-5.9,2.7-11.8,5.4-17.2c2.8-5.4,7.2-10.1,12.9-12c2.7-0.9,5.7-1.1,8.6-0.9c13.3,0.9,25.1,10.4,31.1,22.4
	s6.9,25.9,5.2,39.1c-0.9,7-2.6,14-5.6,20.5c-2.2,4.7-5.3,9.2-10,11.3c-6,2.7-13,0.7-19.1-1.6c-4.2-1.6-8.7-3.7-10.3-7.9
	c-1.6-4.2,2.5-10,6.5-8.1c4.1,1.9,9.2-0.8,11.5-4.8s2.4-8.7,2.3-13.3c-11.6,3.8-25.2,0.7-34-7.7c-2.4-2.3-4.5-5-5.3-8.2
	C1480.3,877.7,1481.1,873.7,1482,869.9z"/>
<path d="M126.5,1147.8c-0.7-25.1,0.3-50.3,1.3-75.4c-8.4-2-17.2,0.2-25.8,0s-18.5-4.1-20.5-12.5c6.5-8.5,18.7-9.5,29.3-11
	c13.4-1.9,26.6-5.8,38.8-11.6c16.7,6.1,37.6-10.1,51.8,0.5c4.3,3.2,6.9,8.7,6.7,14.1c-0.4,8.4-11.7,10.6-20,10.4
	c-8.4-0.2-19.7,2.5-19.6,10.9c0.4,39.3,0.8,78.7,1.1,118c0,3.3,2.3,8,5.1,6.3c9.6-5.8,22.8-10.9,31.1-3.3c6.4,5.8,5.8,15.8,4.8,24.4
	c-0.6,5.1-1.8,11-6.5,13.3c-3.8,1.8-8.2,0.4-12.4,0.1c-5.9-0.4-11.8,1.6-17.5,3.4c-15.8,5-32.1,8.5-48.6,10.4
	c-14.4,1.7-32.3,0.5-38.8-12.5c4.3-9,15.4-11.8,24.8-15.1s19.9-10.4,18.7-20.3C128.3,1181.4,127,1164.6,126.5,1147.8z"/>
<path d="M0.4,278.3c2.5-2.5,6.9-2.8,9.7-0.6c-2.4,2-5.5,3.1-8.7,3C0.2,280.8-0.5,279,0.4,278.3L0.4,278.3z"/>
<path d="M731.3,821.5c5-2.8,12.7-4.6,15.1,0.6c2.4,5.1-3.6,9.8-8.4,12.9c-24.2,15.6-36,48.3-63.3,57.6c-23.4,7.9-49.8-5.7-63.8-26
	c-22.4-32.4-18.9-76.2-7.1-113.8c8.1-26,20.7-52.2,43.1-67.7s56.7-16.4,74.6,4.2c10.3,11.8,13.5,29.1,9,44.1
	c-4.6,15.2-16.1,27.3-28.4,37.3c-11.7,9.4-24.4,17.5-38,24.1c-9.9,4.8-15.9,15.5-17.5,26.4c-1.5,10.9,0.9,21.9,4.3,32.4
	c1.7,5.3,3.9,10.8,8.2,14.4c4.3,3.5,11.5,4.2,15.2,0C690.5,849.2,709.9,833.5,731.3,821.5 M683,709.9c-3.7,2-6.9,4.7-10.1,7.5
	c-2.9,2.5-5.8,5-8.7,7.6c-1.6,1.4-3.3,2.8-4.4,4.7c-1.4,2.3-1.9,5-2.3,7.7c-2.1,12.9-4.2,25.7-6.2,38.6c-0.2,1.2-0.4,2.5,0,3.6
	c0.4,1.3,1.5,2.4,2.8,2.7c3.7-3.7,8.7-5.6,13.4-7.8c20.4-9.6,37.3-27.3,44.6-48.7c1-2.9,1.8-6,1.4-9.1c-0.3-2.1-1.1-4-2-5.9
	c-2.4-5.1-5-10.1-8-14.8c-1.1,4.2-4.7,7.2-8.6,9.1C691,706.8,686.8,707.9,683,709.9z"/>
<path d="M1232.8,1201.9c-2.6,0.1-5.2,0.1-7.7,0.2c-3.7,0.1-7.6,0.2-11,1.9c-3.3,1.7-5.9,5.4-5.1,9.1c-4.5,1.3-3.9-8-8.2-10.1
	c-2.8-1.4-5.9,1.2-8.8,2.4c-4.5,1.7-9.5-0.2-14.4-0.3c-4.8,0-10.6,4.2-8.6,8.6c3.2,6.8,0.5,15.8-5.8,19.7c12.3-1.2,24.7-2.5,37-3.7
	c14.6-1.5,30.2-2.7,43,4.5c3.3,3.7-0.4,9.4-4.4,12.2s-9.2,5.5-9.7,10.4c-0.3,2.9-4.4,2.9-7.3,2.3c-16-3.6-32.7-0.5-49.1,0.5
	c-16.4,1-34.4-0.8-46.4-11.9c-3.7-30-2.8-60.5-1.8-90.7c1.1-35.3,2.3-70.7,3.4-106c0.2-7.1,7-12.4,14-13.8c6.9-1.4,14,0.2,21,1.3
	c18.5,2.8,38.9,1,53.7-10.4c7.4,6.4,19.6-0.9,28.6,3.1c9.5,4.1,9.3,19,1.8,26.1c-7.5,7.1-18.8,8.1-29.1,7.6
	c-8.7-0.5-18.6-1.4-25,4.5c-8.3-3.7-19.5-6.8-25.3,0.2c-2.9,3.4-3.3,8.1-3.6,12.6c-2,31.9-1.8,64,0.5,95.8c13.7,2.4,27.9,2.8,41.7,1
	c6.6-0.8,13.7-2,19.5,1.2c5.8,3.3,7.6,13.3,1.6,16C1229.2,1198,1231,1200,1232.8,1201.9z"/>
<path d="M248.8,1028.4c1.9-2.1,4.7-3.2,7.5-3.4c6.3-0.5,12.5,3.3,15.7,8.8c3.1,5.5,3.3,12.4,1.2,18.3c-1.1,3.2-3.1,6.3-6.1,7.8
	c-2.9,1.4-6.2,1.2-9.4,0.9c-3.8-0.3-8-0.9-10.4-3.9c-1.5-1.9-1.9-4.5-2.1-6.9c-0.4-4.6-0.2-9.2,0.5-13.8
	C246.2,1033.5,246.9,1030.6,248.8,1028.4z"/>
<path d="M1539.7,1192.6c6.5,4.5,10.1,12.8,9,20.7c-1.2,8.2-7.6,15.5-15.6,17.6c-1.8,0.5-3.7,0.7-5.5,0.8c-7.9,0.1-15.7-3.7-20.4-10
	c-4.7-6.2-6.3-14.4-5.6-22.2c0.1-0.6,0.1-1.3,0.4-1.8c0.4-0.7,1.1-1.2,1.8-1.6c3.6-2.3,7.5-4.7,11.8-4.7c3,0,6.1,1,8.7-0.4
	C1529,1188.2,1535.2,1189.5,1539.7,1192.6z"/>
<path d="M1001.9,1126.1c-0.2,30.2-0.5,60.5,1.8,90.7c0.4,5.5,3.1,12.8,8.5,11.8c8.2-1.5,16.6-2.2,24.9-1.9c6.1,0.2,12.5,1,17.2,4.9
	c4.7,3.9,6.4,11.8,2,16c-2.4,2.3-5.8,2.9-9,3.5c-9.8,1.7-19.7,3.4-29.5,5.2c-2.6,0.5-5.3,0.9-7.9,0.3c-12.2-3-25.4,3.7-37.4-0.2
	c-8.5-2.8-14.5-10.7-17.3-19.2c-2.8-8.5-3-17.6-3-26.5c-0.1-59.3,3.4-118.6,10.5-177.5c0.1-1.1,0.4-2.4,1.4-2.7
	c7.9-2.7,16.7-3.5,24.5-0.3c7.7,3.2,13.9,10.7,13.8,19.1C1002.3,1074.8,1002.1,1100.5,1001.9,1126.1z"/>
</svg>
