<?xml version="1.0" encoding="utf-8"?><!DOCTYPE svg PUBLIC "-//W3C//DTD SVG 1.1//EN" "http://www.w3.org/Graphics/SVG/1.1/DTD/svg11.dtd"><svg version="1.1" id="Contours" xmlns="http://www.w3.org/2000/svg" xmlns:xlink="http://www.w3.org/1999/xlink" x="0px" y="0px" width="1548.872559px" height="1548.872559px" viewBox="-0.000000 -0.000000 1548.872559 996.444885" enable-background="new 0 0 1548.872559 1548.872559" xml:space="preserve" stroke="black" fill="none" stroke-linecap='round' stroke-linejoin='round'><path class="selected"  fill="#000000" opacity="1.000000" stroke="none" 
 	d="
M1283.414143 945.367427 C1306.706022 919.105672 1327.549162 890.673032 1345.585193 860.558368 C1349.454571 854.097690 1353.006619 845.227827 1347.883333 839.708373 C1331.048796 821.572070 1328.689264 794.109092 1314.508898 773.829933 C1308.354949 765.029250 1299.528321 755.594403 1302.440272 745.257883 C1314.323488 744.362149 1325.793068 738.802510 1333.857674 730.028954 C1346.622782 745.544483 1359.569247 761.357041 1367.279052 779.910707 C1371.136952 789.194753 1374.177682 799.784150 1382.570367 805.319469 C1392.932111 785.556407 1402.464345 765.358455 1411.133560 744.796620 C1415.296197 734.923586 1426.217067 729.194513 1436.901298 728.387322 C1447.585529 727.580130 1458.134259 730.859367 1468.176670 734.594915 C1473.197922 736.462706 1479.124096 742.152042 1475.314799 745.919119 C1459.900119 761.162950 1444.485439 776.406780 1429.070759 791.650610 C1426.046646 794.641205 1422.921287 797.791156 1421.589435 801.830350 C1420.257583 805.869544 1421.358886 811.054360 1425.147140 812.987764 C1416.089683 814.466657 1408.019876 820.968473 1404.647881 829.503954 C1401.275887 838.039435 1402.723197 848.301047 1408.324399 855.570938 C1433.620467 888.403105 1452.516413 925.616601 1471.258513 962.583829 C1472.045253 964.135608 1472.853184 965.785708 1472.730785 967.521218 C1472.592817 969.477423 1471.297151 971.150501 1469.912015 972.538726 C1460.351704 982.120349 1443.466601 983.093142 1432.869156 974.672856 C1427.921531 970.741680 1424.473541 965.274848 1421.121912 959.917637 C1405.783362 935.400654 1390.444813 910.883671 1375.106264 886.366687 C1356.678892 910.585983 1340.347717 936.399614 1326.355057 963.424561 C1320.676248 974.392422 1305.090969 975.564335 1293.395141 971.595651 C1284.983844 968.741490 1275.982421 961.202886 1278.559418 952.702578 C1279.417182 949.873213 1281.452375 947.579334 1283.414143 945.367427 z"/><path class="selected"  fill="#000000" opacity="1.000000" stroke="none" 
 	d="
M334.408480 818.559105 C334.199366 827.551835 333.990251 836.544565 333.781136 845.537295 C332.995651 879.316156 332.266404 913.610151 340.754597 946.314570 C343.994192 958.796503 329.672821 971.384990 317.215934 968.050387 C308.285616 965.659821 301.906572 957.372824 299.219665 948.527152 C296.532759 939.681479 296.907393 930.236065 297.306793 920.999947 C298.079213 903.137695 298.851635 885.275445 299.624056 867.413195 C300.160703 855.003232 299.496700 840.172379 288.946208 833.616291 C292.280378 834.782675 296.022149 832.439088 297.648598 829.303516 C299.275046 826.167944 299.319094 822.480488 299.326973 818.948197 C299.350929 808.208419 299.374886 797.468640 299.398842 786.728862 C299.419540 777.450145 308.194559 769.747682 317.432018 768.873400 C326.669477 767.999117 335.731727 772.711394 342.261492 779.303600 C348.791257 785.895806 353.217980 794.231437 357.550367 802.436645 C361.962420 810.792736 366.374473 819.148825 370.786527 827.504915 C372.205370 830.192096 376.182510 830.523302 378.799940 828.979567 C381.417370 827.435832 382.990847 824.639345 384.444039 821.970584 C393.147818 805.986243 401.851598 790.001903 410.555378 774.017564 C416.433200 763.223046 424.385613 751.049787 436.660050 750.410572 C440.345747 750.218635 444.008207 751.160378 447.450970 752.490253 C454.126204 755.068771 460.439330 759.395524 463.734756 765.747505 C467.057898 772.152901 466.936854 779.725250 466.738007 786.938628 C466.256169 804.417893 465.774330 821.897158 465.292492 839.376423 C464.946541 851.926198 464.600582 864.476344 464.407123 877.029397 C464.048744 900.283742 464.213824 923.546153 464.902196 946.793071 C465.091531 953.187094 466.119393 960.857716 471.922776 963.548465 C460.611460 972.647381 445.472860 976.822065 431.096663 974.806845 C429.882521 974.636650 428.516824 974.319674 427.910495 973.254089 C427.050260 971.742281 428.284217 969.884986 428.186288 968.148329 C427.898324 963.041622 417.349847 962.404982 418.724800 957.478434 C428.857748 921.171416 412.505040 881.929257 420.047803 844.997118 C420.837396 841.130976 411.042482 839.990730 413.537155 836.933425 C421.096368 827.669355 424.408633 815.072371 422.383847 803.288274 C409.852411 823.296994 401.155156 845.697604 396.901579 868.920283 C395.094336 878.787040 381.521514 882.373393 372.561208 877.864298 C363.600902 873.355202 358.381068 863.945304 353.696190 855.075640 C347.266953 842.903461 340.837717 830.731283 334.408480 818.559105 z"/><path class="selected"  fill="#000000" opacity="1.000000" stroke="none" 
 	d="
M1320.819248 604.510641 C1314.085594 614.055057 1306.591705 623.392090 1296.703067 629.609228 C1286.814430 635.826366 1274.071841 638.509941 1263.271701 634.060791 C1255.145106 630.713016 1248.638914 623.654317 1240.029582 621.885547 C1238.660368 621.604245 1237.110816 621.377948 1236.276348 620.256548 C1220.251687 598.721754 1210.773644 572.381296 1209.403266 545.573477 C1215.964821 532.565047 1220.271283 518.422880 1222.073500 503.965173 C1222.398412 501.358673 1222.752404 498.508563 1224.649635 496.691993 C1233.398791 488.314815 1238.828720 477.153219 1245.773640 467.228859 C1253.971607 455.513881 1264.434243 445.389870 1276.412504 437.581629 C1281.337536 434.371159 1283.576176 428.449968 1286.049618 423.116568 C1293.996758 405.980390 1307.905241 391.095808 1325.672753 384.683232 C1343.440266 378.270656 1365.029558 381.482010 1378.397364 394.827699 C1387.781475 404.196285 1392.436772 417.476010 1393.782315 430.667728 C1394.255343 435.305300 1397.392769 441.817388 1401.408973 439.450757 C1423.239898 426.586436 1451.047452 434.890223 1474.347576 444.849351 C1490.521708 451.762630 1506.635492 459.494863 1519.890312 471.057982 C1533.145131 482.621101 1543.398466 498.549226 1544.795339 516.083327 C1545.277887 522.140459 1543.750536 529.587567 1537.995982 531.538668 C1533.910043 532.924019 1529.324418 530.707815 1526.531113 527.419725 C1523.737809 524.131635 1522.294367 519.945615 1520.654768 515.954900 C1511.889953 494.621694 1493.860098 475.376171 1470.973294 472.526288 C1467.791215 472.130052 1464.284591 471.933491 1461.955511 469.729401 C1448.287507 456.794863 1426.447060 460.476428 1408.182820 465.007889 C1400.778717 466.844889 1392.913512 468.949540 1387.804707 474.614821 C1384.909404 477.825495 1383.185046 481.894989 1381.512349 485.881628 C1371.569129 509.579889 1361.625909 533.278150 1351.682689 556.976411 C1349.633037 561.861467 1347.139238 567.204859 1342.242049 569.225351 C1335.921184 581.459622 1328.757731 593.258476 1320.819248 604.510641 M1305.865440 481.052198 C1300.909891 478.917151 1294.616693 476.471609 1290.666145 480.147076 C1289.321728 481.397889 1288.578351 483.148154 1287.872470 484.843357 C1284.193572 493.678397 1280.514673 502.513436 1276.835774 511.348475 C1273.278023 519.892570 1269.705831 528.480316 1267.533633 537.477022 C1262.734812 557.352545 1264.980485 578.166281 1267.253080 598.486232 C1267.445858 600.209921 1267.698032 602.066196 1268.895492 603.320931 C1271.231207 605.768368 1275.318265 604.408248 1278.272046 602.758797 C1315.608838 581.909182 1336.144048 540.896397 1354.504974 502.274915 C1355.912836 499.313533 1357.355955 496.165085 1357.038382 492.901497 C1356.720808 489.637909 1353.894182 486.382210 1350.651295 486.867535 C1335.570092 489.124569 1319.870100 487.085961 1305.865440 481.052198 M1319.376857 430.143072 C1322.714178 431.433853 1326.260235 432.886539 1328.254858 435.857282 C1330.249480 438.828024 1329.644456 443.766240 1326.260111 444.928152 C1321.731274 446.482990 1318.703873 451.546036 1319.477502 456.271433 C1320.251131 460.996831 1324.735020 464.830150 1329.523236 464.859626 C1341.820630 464.935328 1354.127534 462.309976 1365.323518 457.222582 C1372.969599 453.748246 1374.162819 443.561216 1374.144877 435.162809 C1374.131229 428.775594 1374.036010 422.294009 1372.245753 416.162804 C1370.455496 410.031600 1366.738236 404.195070 1361.083291 401.225510 C1354.269529 397.647425 1345.743571 398.826682 1338.909228 402.365296 C1332.074885 405.903911 1326.577111 411.509934 1321.205242 417.021110 C1319.364574 418.909512 1317.458519 420.907599 1316.732254 423.442685 C1316.005988 425.977771 1316.917343 429.191801 1319.376857 430.143072 z"/><path class="selected"  fill="#000000" opacity="1.000000" stroke="none" 
 	d="
M469.142766 569.009566 C471.427472 531.574409 476.426709 494.305198 484.088251 457.591282 C485.605110 450.322533 487.169081 442.461904 484.064302 435.716838 C480.959523 428.971772 470.952855 425.147349 465.937714 430.623107 C437.683551 461.472284 408.242635 494.626880 400.646721 535.764108 C397.311231 553.828138 398.499362 572.709578 404.072967 590.212996 C406.126188 596.660958 408.794058 603.098347 408.765823 609.865262 C408.737587 616.632176 405.112768 623.990057 398.586674 625.779477 C394.882866 626.795041 390.934462 625.874246 387.295678 624.645908 C377.656302 621.391960 368.764368 615.944993 361.486550 608.835908 C359.710601 591.313636 353.642576 574.563191 348.215605 557.808133 C333.857856 513.480480 323.701477 467.793041 317.926872 421.557344 C317.520440 418.303158 316.955616 414.706264 314.405119 412.644741 C310.896467 409.808759 305.729054 411.378770 301.546484 413.069786 C265.647927 427.583609 229.749370 442.097430 193.850812 456.611250 C173.768400 464.730589 153.533523 472.929124 135.455431 484.862670 C99.466577 508.619307 74.233010 545.806409 56.196745 584.976149 C53.622100 590.567562 51.025261 596.421041 46.322933 600.393547 C41.620605 604.366053 34.101452 605.773743 29.404662 601.794692 C48.438333 539.443393 93.216823 485.382659 150.934158 455.073033 C167.581715 446.330752 185.160735 439.520029 202.695166 432.729422 C232.329034 421.253033 261.962903 409.776644 291.596771 398.300255 C303.530069 393.678814 317.909064 384.886076 315.256769 372.367024 C311.401406 354.169425 310.986944 335.248978 314.041732 316.900010 C315.561201 307.773136 315.217748 294.651059 306.017661 293.667690 C311.052946 290.613005 314.489518 285.065701 314.982334 279.196943 C318.142246 241.566729 326.749265 204.398225 340.451889 169.209361 C346.753894 153.025568 354.274725 137.027927 365.648432 123.902790 C377.022139 110.777653 392.716506 100.682405 410.008648 99.066158 C428.114646 97.373842 445.875337 104.987597 461.189601 114.793941 C467.662899 118.939056 473.917677 123.547525 479.039095 129.279595 C485.623289 136.648855 490.154276 145.707264 492.949494 155.185890 C504.963444 195.925381 485.140324 238.866991 462.889164 275.046088 C443.338300 306.834660 420.932132 337.747849 390.792639 359.756043 C379.728501 367.835201 379.111520 383.824483 379.549789 397.517396 C380.034246 412.653299 380.518702 427.789202 381.003157 442.925106 C381.659039 463.416893 382.379991 484.275304 389.095140 503.646683 C401.808903 480.514263 414.646633 457.200533 431.784729 437.124820 C448.922825 417.049106 470.893092 400.189799 496.455832 393.609909 C514.993948 404.336186 527.630975 423.429048 534.205580 443.812604 C540.780185 464.196160 541.843523 485.935363 541.558206 507.351090 C541.171659 536.365037 538.404165 565.346916 533.292685 593.909677 C530.681380 608.501550 525.751152 625.129836 512.025456 630.728672 C498.073956 636.419616 481.628643 626.707885 474.765951 613.293912 C467.903260 599.879940 468.224886 584.049137 469.142766 569.009567 M380.680794 346.277915 C408.591670 323.374393 430.151889 293.609274 448.187407 262.331353 C459.260603 243.127767 469.263836 222.807891 472.580347 200.889997 C475.896858 178.972102 471.724137 155.043666 457.152237 138.338785 C452.137370 132.589865 445.667857 127.664518 438.134865 126.459134 C428.401355 124.901636 418.480574 129.966573 412.040114 137.428979 C405.599654 144.891384 402.122890 154.441991 399.594272 163.969483 C394.931853 181.536849 393.055909 199.704981 391.195732 217.785086 C388.665261 242.380165 386.134789 266.975243 383.604317 291.570321 C382.840007 298.999091 382.076371 306.508721 383.046824 313.913383 C381.373967 324.612528 380.581741 335.449232 380.680794 346.277915 z"/><path class="selected"  fill="#000000" opacity="1.000000" stroke="none" 
 	d="
M936.024793 578.813077 C933.838101 592.351812 929.228402 605.979574 919.829623 615.966662 C910.430845 625.953751 895.483103 631.517973 882.527887 627.018935 C873.598408 623.917944 866.755830 616.650472 861.258340 608.960908 C845.239014 586.554023 837.777342 558.871262 836.166535 531.374124 C834.555728 503.876986 838.484015 476.358130 843.514269 449.277069 C845.059209 440.959672 833.176877 437.344699 824.781607 438.386510 C816.386336 439.428321 805.097770 439.892404 802.460340 431.854376 C799.668130 423.344631 810.739699 416.850060 819.684682 416.403436 C828.629665 415.956811 839.257313 417.057435 844.836915 410.051707 C846.865120 407.505101 847.794317 404.274758 848.578120 401.114937 C852.312845 386.058772 853.799058 370.446907 852.972294 354.956499 C855.979026 349.484694 857.444086 343.322246 858.876876 337.245388 C870.463693 288.102476 882.050511 238.959564 893.637329 189.816652 C898.591581 168.804297 903.619554 147.583168 913.167866 128.221005 C922.716178 108.858841 937.327643 91.236685 956.925071 82.181053 C976.522499 73.125420 1001.486445 74.092782 1017.996407 88.002664 C1031.256293 99.174309 1037.504518 117.005132 1038.099011 134.333629 C1038.693504 151.662126 1034.262120 168.746235 1029.288658 185.356320 C1015.731036 230.635282 997.862490 274.622382 976.003342 316.529078 C969.664043 328.682301 962.835142 340.865275 952.911270 350.320661 C947.003439 355.949596 940.000478 360.617658 935.508178 367.429897 C930.556910 374.938128 929.218758 384.186036 928.002970 393.097289 C924.619805 417.894648 921.236636 442.692005 917.853467 467.489362 C916.878142 474.638129 915.902817 481.786896 914.927491 488.935663 C909.756392 526.837880 904.585292 564.740097 899.414192 602.642313 C907.246471 602.193969 912.122221 594.327530 916.611701 587.894010 C921.101181 581.460489 929.120204 575.088526 936.024792 578.813077 M963.083587 119.102622 C960.908836 123.990172 958.922222 128.968975 957.364536 134.086719 C953.642154 146.316520 952.421016 159.145332 951.219430 171.872482 C950.614777 178.276957 950.010122 184.681433 949.405468 191.085908 C944.809793 239.763127 940.195020 288.567745 930.053881 336.398166 C933.277732 338.458291 937.170474 335.085535 939.463327 332.022831 C973.585605 286.443597 999.829616 234.982544 1016.686505 180.598339 C1020.953373 166.832442 1024.655432 152.617819 1024.069082 138.217739 C1023.482733 123.817660 1018.063684 109.034113 1006.852524 99.977846 C1002.313462 96.311232 996.730773 93.629914 990.895847 93.657176 C977.581414 93.719388 968.496356 106.937922 963.083587 119.102618 z"/><path class="selected"  fill="#000000" opacity="1.000000" stroke="none" 
 	d="
M1052.670975 428.834000 C1039.867379 437.097536 1027.063784 445.361072 1014.260189 453.624607 C1009.051047 456.986628 1000.809030 459.717332 997.793977 454.299971 C995.990183 451.058962 997.687329 447.031872 999.607210 443.858253 C1009.959607 426.745442 1027.321559 414.019207 1046.756805 409.297806 C1056.106791 407.026416 1068.130766 404.479477 1069.778652 394.999714 C1080.958841 330.683541 1099.167543 267.591624 1123.976244 207.208722 C1133.859739 183.152883 1145.077609 159.081560 1162.744481 139.996263 C1180.411352 120.910966 1205.640080 107.274239 1231.576856 109.184874 C1238.495719 109.694554 1245.404516 111.317593 1251.509236 114.613472 C1266.373087 122.638321 1274.614753 139.778630 1275.924962 156.619520 C1277.235170 173.460411 1272.620047 190.178954 1267.172546 206.168231 C1246.841056 265.844359 1214.104974 321.263043 1171.653047 367.872522 C1167.837332 372.061932 1163.921621 376.210007 1160.860574 380.978740 C1154.852354 390.338807 1152.483377 401.505557 1150.224317 412.396205 C1145.369497 435.800753 1140.514672 459.205299 1135.659846 482.609846 C1128.298504 518.098017 1120.937161 553.586189 1113.575819 589.074361 C1112.327175 595.093926 1111.086783 601.405462 1112.811470 607.306287 C1114.536158 613.207112 1120.280718 618.423726 1126.328847 617.321726 C1132.024375 616.283972 1135.366046 610.576537 1138.887781 605.981610 C1142.409515 601.386683 1148.683526 597.192778 1153.599724 600.250059 C1159.283774 603.784851 1156.865963 612.466896 1153.799074 618.416465 C1148.528622 628.640803 1141.852968 639.978990 1130.586260 642.297621 C1118.912569 644.700007 1107.260281 636.170594 1095.445734 637.739986 C1068.008110 616.799764 1054.458437 581.635144 1051.786453 547.223276 C1049.114468 512.811409 1055.957923 478.461602 1062.323235 444.538175 C1063.050257 440.663570 1063.746809 436.523606 1062.217549 432.890084 C1060.688288 429.256561 1055.983247 426.696236 1052.670979 428.833992 M1171.665787 233.935672 C1166.933402 269.711867 1163.386465 305.644859 1161.032754 341.655852 C1200.464499 298.275056 1230.000691 245.952051 1246.767855 189.777158 C1250.729354 176.504978 1253.962471 162.104382 1249.449850 149.009326 C1244.937230 135.914269 1229.734058 125.640398 1217.060598 131.228568 C1213.920611 132.613098 1211.211885 134.813965 1208.704589 137.157021 C1197.924767 147.230709 1190.251551 160.283082 1184.905023 174.034387 C1177.476270 193.141187 1174.354081 213.612550 1171.665788 233.935672 z"/><path class="selected"  fill="#000000" opacity="1.000000" stroke="none" 
 	d="
M871.440246 996.180282 C863.597619 994.488752 860.736935 984.988654 859.333920 977.089311 C856.976823 963.818174 854.619721 950.547038 852.262619 937.275903 C851.441186 932.650999 850.523238 927.807930 847.564711 924.159423 C838.122712 912.515386 818.496929 921.941343 804.708972 916.056855 C795.380803 936.196936 790.005907 958.158910 788.978848 980.330576 C788.837504 983.381843 787.310505 986.227401 785.339302 988.560760 C778.429275 996.740313 765.392477 998.905701 756.209224 993.399211 C747.025972 987.892721 742.794704 975.373001 746.754666 965.424520 C774.632033 895.389142 801.164075 824.727469 822.383706 752.396086 C823.582913 748.308350 828.010593 746.130974 832.130954 745.049165 C848.439804 740.767240 868.438068 748.376747 873.821113 764.355993 C875.638170 769.749814 875.724494 775.548069 875.890517 781.237309 C876.766953 811.270988 880.352268 841.152086 883.933838 870.984324 C886.094886 888.984495 888.255934 906.984666 890.416982 924.984837 C890.901298 929.018883 892.181806 933.972606 896.161307 934.792154 C894.675804 947.947901 896.139738 961.428355 900.414654 973.958543 C902.265122 979.382443 899.496175 985.555837 895.090588 989.221042 C890.685001 992.886247 884.963813 994.520722 879.357889 995.710905 C876.751474 996.264270 874.044861 996.742057 871.440246 996.180282 M834.266940 897.925066 C836.068611 897.945130 837.973892 897.938825 839.523325 897.019217 C842.737201 895.111737 842.764872 890.551419 842.395594 886.832399 C840.813450 870.898578 839.231307 854.964757 837.649165 839.030936 C837.394749 836.468698 837.081746 833.754451 835.495525 831.726227 C826.398716 850.743146 818.874834 870.512189 813.025926 890.765222 C812.603039 892.229556 812.198630 893.849777 812.845138 895.230043 C813.861842 897.400657 816.757960 897.730082 819.154737 897.756774 C824.192138 897.812870 829.229539 897.868968 834.266940 897.925066 z"/><path class="selected"  fill="#000000" opacity="1.000000" stroke="none" 
 	d="
M1481.988442 593.711263 C1483.302538 587.826031 1484.643856 581.864604 1487.422691 576.512887 C1490.201526 571.161169 1494.630836 566.398866 1500.365860 564.535454 C1503.112370 563.643064 1506.049148 563.445696 1508.930027 563.646211 C1522.252079 564.573453 1534.005529 574.082101 1540.025880 586.002345 C1546.046230 597.922588 1546.963890 611.879220 1545.237572 625.121450 C1544.320239 632.158134 1542.674076 639.152818 1539.669059 645.581371 C1537.486858 650.249700 1534.344654 654.808611 1529.632591 656.894698 C1523.622420 659.555472 1516.647031 657.595477 1510.503545 655.258933 C1506.346841 653.678017 1501.843511 651.531883 1500.249058 647.380354 C1498.654604 643.228825 1502.723601 637.395216 1506.768689 639.243117 C1510.906365 641.133316 1515.982952 638.401738 1518.225980 634.444210 C1520.469009 630.486682 1520.591915 625.713464 1520.567056 621.164553 C1508.973381 624.966831 1495.395404 621.873593 1486.592691 613.424755 C1484.204223 611.132306 1482.107088 608.391972 1481.275091 605.187618 C1480.302182 601.440555 1481.144804 597.489531 1481.988442 593.711264 z"/><path class="selected"  fill="#000000" opacity="1.000000" stroke="none" 
 	d="
M126.530547 871.633336 C125.792111 846.506180 126.787230 821.363962 127.782189 796.245656 C119.373305 794.287662 110.599145 796.461409 101.967614 796.262111 C93.336082 796.062812 83.468765 792.113765 81.450825 783.719065 C87.939340 775.175096 100.117908 774.227841 110.741313 772.730003 C124.161222 770.837874 137.292124 766.909233 149.546055 761.119991 C166.201668 767.244394 187.134175 751.042709 201.365394 761.644133 C205.704932 764.876835 208.294776 770.328410 208.059242 775.734561 C207.693765 784.123365 196.405714 786.346247 188.010535 786.183274 C179.615355 786.020300 168.299303 788.669512 168.380210 797.065883 C168.759368 836.413704 169.138527 875.761523 169.517686 915.109342 C169.549512 918.412063 171.788262 923.101350 174.616845 921.396034 C184.211662 915.611441 197.400749 910.526217 205.676733 918.078044 C212.048570 923.892337 211.492086 933.903264 210.436758 942.464373 C209.806591 947.576458 208.616974 953.512225 203.984470 955.763986 C200.222423 957.592636 195.791979 956.153879 191.619352 955.860377 C185.671978 955.442036 179.857223 957.441632 174.168675 959.226758 C158.333847 964.195894 142.038197 967.695478 125.559375 969.665884 C111.151768 971.388631 93.283319 970.140235 86.795616 957.161148 C91.135644 948.181348 102.214052 945.343152 111.644329 942.096226 C121.074606 938.849300 131.528795 931.700348 130.320641 921.800196 C128.288492 905.147868 127.023343 888.401961 126.530547 871.633336 z"/><path class="selected"  fill="#000000" opacity="1.000000" stroke="none" 
 	d="
M0.351153 2.087705 C2.819074 -0.455177 7.269815 -0.714053 10.015909 1.525558 C7.605501 3.505735 4.469704 4.582125 1.351312 4.499761 C0.216014 4.580378 -0.482395 2.828257 0.397052 2.105784 z"/><path class="selected"  fill="#000000" opacity="1.000000" stroke="none" 
 	d="
M731.315346 545.303582 C736.287687 542.520972 744.023013 540.713928 746.448897 545.869719 C748.845066 550.962356 742.800577 555.677614 738.071261 558.728864 C713.848768 574.356683 702.078783 607.031644 674.779005 616.287986 C651.413915 624.210226 624.974086 610.556072 610.936830 590.267040 C588.525548 557.874440 592.071392 514.025349 603.794154 476.420523 C611.911804 450.380339 624.482644 424.198995 646.910375 408.675326 C669.338106 393.151657 703.616401 392.270293 721.504606 412.861543 C731.773186 424.681782 735.016351 441.964262 730.526815 456.964454 C725.972511 472.181045 714.448454 484.306799 702.097907 494.294306 C690.417732 503.739705 677.653340 511.843273 664.135934 518.394745 C654.256566 523.182971 648.202705 533.894101 646.675126 544.765877 C645.147547 555.637653 647.551750 566.690730 650.928213 577.137189 C652.648866 582.460730 654.807195 587.963890 659.147853 591.493681 C663.488510 595.023472 670.638667 595.684556 674.324296 591.475415 C690.509125 572.991655 709.875924 557.301463 731.315346 545.303584 M682.982594 433.733436 C679.276129 435.690867 676.076135 438.465604 672.912411 441.215199 C670.012967 443.735108 667.113522 446.255017 664.214078 448.774926 C662.595120 450.181963 660.949645 451.619955 659.834550 453.452260 C658.439467 455.744637 657.983446 458.468645 657.554339 461.117628 C655.472658 473.968382 653.390976 486.819136 651.309295 499.669889 C651.113796 500.876754 650.921296 502.134958 651.281720 503.303221 C651.684555 504.608949 652.804380 505.668179 654.130478 505.997827 C657.817601 502.311906 662.852381 500.391966 667.567321 498.167060 C688.015973 488.517662 704.909221 470.888411 712.130169 449.461415 C713.119132 446.526828 713.938033 443.428201 713.509964 440.361182 C713.220304 438.285837 712.373062 436.333996 711.492758 434.432411 C709.132277 429.333434 706.469142 424.374585 703.522034 419.590654 C702.456991 423.774196 698.786401 426.808368 694.914958 428.718413 C691.043514 430.628457 686.799941 431.717448 682.982595 433.733438 z"/><path class="selected"  fill="#000000" opacity="1.000000" stroke="none" 
 	d="
M1232.816563 925.717289 C1230.234880 925.767688 1227.653197 925.818086 1225.071513 925.868484 C1221.333227 925.941461 1217.449887 926.048808 1214.111487 927.732613 C1210.773087 929.416418 1208.162150 933.169890 1209.048056 936.802422 C1204.530927 938.123584 1205.103783 928.831790 1200.897945 926.719715 C1198.063679 925.296411 1195.015862 927.961308 1192.052391 929.091218 C1187.535531 930.813404 1182.524885 928.842829 1177.690878 928.824662 C1172.856871 928.806496 1167.092774 933.055471 1169.138101 937.435493 C1172.310057 944.228161 1169.655884 953.190923 1163.296691 957.161101 C1175.644041 955.926097 1187.991392 954.691094 1200.338742 953.456090 C1214.920986 951.997549 1230.569388 950.745735 1243.345599 957.924705 C1246.604832 961.588596 1242.972403 967.332594 1238.918949 970.092340 C1234.865494 972.852086 1229.700666 975.563097 1229.226587 980.443870 C1228.947049 983.321796 1224.789039 983.353095 1221.967965 982.718946 C1205.935296 979.114966 1189.277046 982.210975 1172.872833 983.178931 C1156.468620 984.146888 1138.520248 982.379611 1126.440619 971.238799 C1122.690829 941.190526 1123.661904 910.776984 1124.639228 880.511418 C1125.780314 845.174547 1126.921399 809.837676 1128.062484 774.500805 C1128.290487 767.440081 1135.084234 762.068449 1142.017407 760.713125 C1148.950581 759.357800 1156.066558 760.962147 1163.054531 761.998502 C1181.601190 764.749076 1201.926946 763.009328 1216.773491 751.558375 C1224.218056 757.973502 1236.384124 750.677442 1245.382825 754.626973 C1254.838026 758.776854 1254.680642 773.650118 1247.183087 780.750049 C1239.685533 787.849981 1228.360757 788.890785 1218.049232 788.347846 C1209.323728 787.888417 1199.422115 786.952402 1193.002041 792.879299 C1184.688121 789.212299 1173.545763 786.109940 1167.696485 793.063652 C1164.841870 796.457259 1164.400073 801.206002 1164.125278 805.632049 C1162.144179 837.541163 1162.310808 869.583444 1164.623665 901.470227 C1178.372596 903.891132 1192.483881 904.243509 1206.336506 902.511849 C1212.919990 901.688874 1220.054397 900.496381 1225.831925 903.758239 C1231.609452 907.020098 1233.463240 917.027546 1227.429123 919.785983 C1229.224934 921.763086 1231.020749 923.740188 1232.816563 925.717290 z"/><path class="selected"  fill="#000000" opacity="1.000000" stroke="none" 
 	d="
M248.802555 752.226124 C250.665274 750.131281 253.483527 749.060585 256.278890 748.850745 C262.582952 748.377517 268.822520 752.156927 271.955798 757.647618 C275.089076 763.138309 275.284431 770.036915 273.164017 775.992498 C272.027799 779.183791 270.099968 782.303847 267.058253 783.794923 C264.205342 785.193445 260.857250 784.950858 257.691854 784.676582 C253.906619 784.348598 249.677476 783.791946 247.327723 780.806275 C245.815431 778.884710 245.419731 776.329601 245.227563 773.891875 C244.865793 769.302703 245.041240 764.671408 245.749178 760.122759 C246.189383 757.294335 246.900468 754.365243 248.802556 752.226125 z"/><path class="selected"  fill="#000000" opacity="1.000000" stroke="none" 
 	d="
M1539.662386 916.408627 C1546.146045 920.935622 1549.791235 929.239398 1548.672183 937.067504 C1547.496434 945.292222 1541.071341 952.521724 1533.041566 954.655046 C1531.236164 955.134701 1529.369775 955.375543 1527.502000 955.406462 C1519.636080 955.536673 1511.803222 951.715911 1507.063633 945.436903 C1502.361582 939.207623 1500.806736 931.014097 1501.472741 923.237874 C1501.526372 922.611678 1501.598892 921.968111 1501.897542 921.415114 C1502.288318 920.691532 1503.010907 920.218986 1503.704384 919.776983 C1507.331814 917.464966 1511.212780 915.074003 1515.514168 915.032431 C1518.473953 915.003824 1521.663155 916.063683 1524.256819 914.637481 C1529.030067 912.012771 1535.196049 913.290158 1539.662386 916.408626 z"/><path class="selected"  fill="#000000" opacity="1.000000" stroke="none" 
 	d="
M1001.877235 849.914395 C1001.642522 880.149921 1001.409129 910.427016 1003.680029 940.578055 C1004.093881 946.072826 1006.788617 953.379969 1012.206382 952.374185 C1020.407331 950.851716 1028.770180 950.202884 1037.107817 950.442205 C1043.171438 950.616253 1049.622240 951.418733 1054.288013 955.295376 C1058.953785 959.172019 1060.669469 967.087345 1056.286244 971.280808 C1053.930050 973.534996 1050.515818 974.195834 1047.303803 974.757944 C1037.466938 976.479420 1027.630074 978.200896 1017.793209 979.922372 C1015.178190 980.380007 1012.471878 980.835391 1009.894721 980.198194 C997.710749 977.185715 984.448540 983.930332 972.536794 979.976283 C964.064234 977.163857 958.044311 969.290296 955.211126 960.824655 C952.377941 952.359014 952.253987 943.258330 952.239519 934.331192 C952.143401 875.026756 955.661475 815.716679 962.767728 756.839464 C962.897221 755.766584 963.185863 754.486825 964.206611 754.131982 C972.077472 751.395850 980.946976 750.675630 988.658620 753.832751 C996.370263 756.989872 1002.539774 764.566457 1002.475089 772.899084 C1002.275805 798.570854 1002.076520 824.242625 1001.877235 849.914395 z"/></svg>