<?xml version="1.0" encoding="utf-8"?><!DOCTYPE svg PUBLIC "-//W3C//DTD SVG 1.1//EN" "http://www.w3.org/Graphics/SVG/1.1/DTD/svg11.dtd"><svg version="1.1" id="Contours" xmlns="http://www.w3.org/2000/svg" xmlns:xlink="http://www.w3.org/1999/xlink" x="0px" y="0px" width="2442.122070px" height="2000px" viewBox="0.000001 0.000001 2442.122070 1778.116821" enable-background="new 0 0 2442.122070 2442.122070" xml:space="preserve" stroke="black" fill="none" stroke-linecap='round' stroke-linejoin='round'><path class="selected"  fill="#000000" opacity="1.000000" stroke="none" 
 	d="
M1267.237350 1001.616805 C1267.737350 997.783798 1267.966110 994.431075 1267.682174 991.122482 C1267.284835 986.494796 1264.866500 985.577377 1260.764572 988.024276 C1259.197677 988.959030 1257.261276 990.179122 1255.657272 989.975631 C1251.007247 989.385787 1247.786666 991.374374 1244.166305 993.931197 C1241.317428 995.943282 1237.577438 997.895065 1233.522872 995.087325 C1232.117233 994.113937 1229.715866 994.713729 1227.986251 994.038925 C1225.787887 993.181320 1222.995040 992.267196 1221.883468 990.487472 C1217.840621 984.014327 1214.072311 977.354293 1215.596237 969.040267 C1215.989425 966.895858 1214.692184 962.453353 1214.094284 962.439742 C1210.342575 962.353927 1210.785324 965.914596 1209.461105 968.359481 C1206.755050 973.355453 1203.176437 978.417159 1198.709640 981.808822 C1189.494674 988.806136 1179.711227 995.172225 1169.614425 1000.819808 C1166.546310 1002.535995 1161.209640 1002.210800 1157.737960 1000.795150 C1148.989791 997.227706 1143.241989 989.630538 1142.130416 980.738021 C1141.103317 972.521896 1137.200729 963.800155 1141.788131 955.474471 C1145.855270 948.093002 1144.555831 939.445907 1147.795700 931.959396 C1149.387985 928.279769 1151.664962 924.901046 1153.460128 921.300521 C1153.802169 920.614669 1153.653732 919.213363 1153.156784 918.712692 C1152.657394 918.209640 1150.958541 917.987594 1150.608688 918.378829 C1141.401412 928.673934 1127.563034 934.384261 1121.626510 947.990524 C1120.019454 951.673934 1116.604537 954.549117 1114.857589 958.196761 C1113.283126 961.483932 1108.839401 964.892562 1113.601364 969.191696 C1113.920944 969.480209 1112.708419 971.329147 1112.378097 972.500106 C1111.450363 975.789230 1109.966232 979.088790 1109.890792 982.411239 C1109.782028 987.202255 1109.995529 991.593551 1104.007247 992.903854 C1103.459030 993.023788 1102.888595 993.718307 1102.609786 994.284469 C1100.762496 998.037032 1099.061325 1002.886947 1094.046310 1001.907455 C1088.059127 1000.738021 1081.930221 998.779037 1076.674240 995.752548 C1069.639694 991.702010 1073.137008 984.352218 1074.264083 978.932906 C1076.330978 968.995590 1080.741378 959.557906 1082.994552 949.643661 C1085.310104 939.455428 1086.108077 928.929427 1087.785568 918.586105 C1088.547042 913.891281 1085.777877 913.469650 1082.633712 914.201522 C1077.823287 915.321334 1072.902389 916.482772 1068.454879 918.545577 C1056.340377 924.164657 1043.703292 927.136520 1030.427291 928.227828 C1022.563888 928.874191 1014.791427 930.624557 1006.977218 931.873641 C1006.347091 931.974349 1005.700607 932.153121 1005.079025 932.098373 C1000.100509 931.660262 994.983444 930.237350 990.190475 930.967025 C985.387924 931.698165 981.303451 932.728683 976.437789 930.381759 C973.463424 928.947189 968.755660 929.013351 965.667221 930.349288 C959.465866 933.031539 953.742233 934.480148 947.515304 930.982650 C947.049240 930.720870 946.033248 931.096053 945.440841 931.453353 C938.182601 935.831344 930.093307 937.968734 922.020309 940.090743 C912.064865 942.707504 903.999618 948.555953 896.087814 954.749801 C887.793502 961.243148 879.442916 967.664718 871.115585 974.115890 C870.612899 974.505294 869.893600 974.770553 869.621261 975.279037 C862.534774 988.509933 848.522811 992.623092 837.120529 1000.205428 C833.915450 1002.336654 831.148788 1005.310775 828.658920 1008.296737 C822.969222 1015.120223 812.427780 1016.445785 809.040389 1025.801986 C807.991989 1028.697860 806.710128 1031.514999 805.776168 1034.444808 C804.926559 1037.110214 804.289962 1039.857894 803.764388 1042.608383 C802.993087 1046.645126 801.273178 1050.915756 801.945053 1054.737167 C804.140975 1067.226425 804.296371 1068.342513 801.902694 1081.145492 C801.433212 1083.656600 803.467880 1086.533553 803.663375 1089.290267 C804.259628 1097.698226 803.575485 1105.981674 800.832809 1114.076400 C797.367721 1124.303329 796.379318 1135.355331 790.296066 1144.737411 C789.367111 1146.169906 789.850143 1148.540145 789.743514 1150.480209 C789.123275 1161.760604 780.656661 1172.202133 769.633346 1176.232894 C765.305526 1177.815658 760.261215 1178.623275 757.535507 1183.274032 C756.042770 1185.821029 753.641586 1186.632919 750.730697 1186.142806 C749.758346 1185.978988 748.675949 1185.897811 747.744308 1186.150009 C736.308517 1189.246688 728.368270 1181.710555 719.576888 1176.868270 C718.174911 1176.095931 716.132064 1174.526595 716.176681 1173.396468 C716.550460 1163.930038 710.147323 1156.237045 709.667648 1146.994613 C709.167098 1137.348983 709.884200 1128.635604 717.374923 1121.027206 C721.046249 1117.298324 722.567794 1111.304672 724.608932 1106.156478 C727.187728 1099.652328 731.644882 1094.694320 736.711959 1090.184432 C741.933395 1085.537216 745.411910 1080.264633 745.892562 1072.920883 C746.189193 1068.387557 748.920883 1064.011947 753.131454 1062.340560 C757.054733 1060.783309 757.111617 1058.440170 757.899520 1055.093246 C761.531722 1039.665023 767.111373 1024.558944 769.235946 1008.962020 C770.568221 999.181381 776.291488 990.000778 773.747177 979.687484 C773.669662 979.373336 773.670455 979.006942 773.747604 978.692550 C774.613204 975.164169 775.501022 971.641219 776.382858 968.116805 C773.394027 970.557113 769.963912 972.620406 767.497177 975.506881 C759.297470 985.102035 748.031112 988.015060 736.481002 990.006637 C728.097518 991.452133 726.932235 991.386947 719.074020 987.919784 C714.870101 986.064864 709.888290 982.867355 708.325851 979.027267 C706.840927 975.377670 703.181442 970.691451 707.043319 965.596359 C709.610824 962.208968 705.858261 961.229965 704.055770 962.279342 C698.390914 965.577438 693.076339 969.501144 687.771530 973.381454 C685.667159 974.920760 684.104415 977.195236 682.014938 978.761276 C677.728988 981.973434 672.954269 984.588363 668.932113 988.083602 C663.780441 992.560348 657.252975 992.191757 651.383163 994.084335 C648.721420 994.942611 645.363693 994.698226 643.339523 996.267196 C638.540939 999.986801 635.753402 997.478378 632.695358 994.117233 C630.493209 991.696945 628.050216 989.497848 625.775314 987.141464 C620.082443 981.244674 620.716049 973.647445 622.204452 966.964034 C624.818954 955.224471 629.531417 943.962692 632.380050 932.260970 C634.463546 923.702499 641.202743 918.591293 645.361129 911.626266 C647.476852 908.082504 650.513900 905.096786 653.012679 901.767318 C653.524825 901.084823 653.493514 899.994491 653.712753 899.092147 C652.574752 898.913192 650.946273 898.157333 650.374069 898.643783 C644.166366 903.922836 637.250717 908.712142 632.303573 915.026107 C628.075363 920.422714 623.536727 925.336776 618.753402 930.158065 C612.398971 936.563033 606.934310 943.731918 601.262435 950.704208 C594.485702 959.034530 589.873092 967.976547 585.839889 977.503524 C584.521408 980.617782 584.626327 984.303146 583.692184 987.617965 C581.594406 995.062545 579.789413 1002.663070 576.815658 1009.760360 C574.957382 1014.195663 559.088363 1018.009750 554.662582 1015.999618 C554.094284 1015.741439 553.522262 1015.170272 553.262679 1014.602035 C549.037887 1005.352157 540.207015 998.306869 541.521652 986.356490 C542.463424 977.794723 541.330673 969.116195 545.662399 960.999496 C551.480026 950.098495 557.422103 939.371566 566.203536 930.467819 C566.927352 929.733993 571.930282 931.596725 568.273300 927.805648 C567.426925 926.928146 564.784103 926.255905 564.353439 926.734969 C558.233138 933.541610 549.033492 935.560348 542.271163 940.990280 C536.370590 945.728317 530.461105 950.893722 527.525314 958.737899 C525.379379 964.471786 521.027450 969.343307 518.159408 974.859481 C516.761825 977.547408 516.262191 980.792465 515.792221 983.852340 C514.989486 989.078414 512.270065 992.217208 507.086410 992.016708 C500.680343 991.768844 494.292587 990.860397 487.925399 990.021530 C487.108566 989.913864 486.223190 988.622421 485.783676 987.685165 C484.608627 985.179611 484.113510 982.241622 482.542159 980.054672 C475.081161 969.670638 478.484786 959.001937 482.227584 948.876388 C486.657394 936.892196 491.728866 925.002059 501.086898 915.671981 C501.621444 915.139022 501.876022 913.666305 501.520370 913.081527 C501.151168 912.474471 499.686019 911.936080 499.038375 912.199508 C496.187118 913.358932 493.226180 914.485702 490.724044 916.226608 C479.052780 924.346847 467.988021 933.465438 455.765914 940.620468 C448.253677 945.018234 441.221145 950.203658 433.443313 954.183273 C426.542404 957.714156 420.060440 962.074203 413.110061 965.491500 C411.186141 966.437423 407.127609 966.289474 405.997909 964.971847 C403.039016 961.521102 399.574691 962.022628 396.041732 962.145370 C378.650649 962.749191 361.260238 963.391036 343.877639 964.194442 C341.794296 964.290756 339.762771 966.001632 337.702590 966.011642 C331.923568 966.039657 326.738204 968.591232 320.195175 966.689681 C313.559616 964.761154 305.267410 966.378402 298.283737 968.428573 C291.748702 970.347091 285.438644 969.902389 279.021255 970.070846 C249.636184 970.842086 220.222640 970.976913 190.877502 972.478378 C184.259353 972.817001 177.034912 972.851730 170.420623 975.906173 C167.673431 977.174789 163.648132 976.850204 160.553787 975.990829 C146.583877 972.110824 132.165725 973.170150 118.427566 974.772079 C108.647293 975.912521 98.466354 973.873275 88.838302 977.690292 C86.426063 978.646774 82.606506 975.647018 79.889175 976.315902 C71.405570 978.404098 62.480422 972.964584 54.328010 978.116805 C42.131965 973.857345 29.527633 977.166610 17.161476 976.098617 C13.142726 975.751571 7.882572 968.647994 9.906532 965.729110 C12.082611 962.590682 16.526138 960.669051 19.875774 962.360153 C24.369270 964.628768 28.753745 963.595748 33.164779 964.149764 C37.241012 964.661666 41.268424 965.862777 45.343223 966.001815 C49.502159 966.143722 53.696281 965.397933 57.867607 964.968795 C59.757331 964.774398 61.620506 964.243881 63.510528 964.142806 C76.897186 963.427230 90.497726 964.014388 103.618728 961.775436 C117.112441 959.473007 130.576538 961.736556 143.818618 959.925338 C165.544692 956.953719 187.292083 958.874679 209.008087 958.056747 C216.745346 957.765304 224.450820 956.366927 232.181716 956.259567 C237.561447 956.184860 242.946975 957.813156 248.353744 958.003158 C252.764144 958.158126 257.148025 957.496810 261.617233 956.602462 C266.889724 955.547286 272.840743 956.022750 278.843704 957.524093 C286.139999 959.348861 294.481368 957.114974 302.357009 956.470565 C310.703506 955.787643 319.019088 954.592880 327.375381 954.198837 C337.305374 953.730636 347.428115 955.240768 356.759506 950.209457 C357.792983 949.652145 359.383499 950.176559 360.711044 950.108383 C373.434402 949.455734 386.307388 949.764449 398.837173 947.841171 C411.391189 945.914230 424.568435 945.200546 435.970107 938.725387 C445.475570 933.327194 454.963607 927.670822 463.585708 920.999557 C475.600143 911.703475 488.627731 904.621017 503.023544 900.240463 C512.123763 897.471359 518.039718 902.670944 519.886947 912.435287 C521.269271 919.742233 523.002487 926.827499 520.702987 934.200729 C520.530502 934.753707 520.928390 936.039962 521.005966 936.035507 C524.553512 935.829269 528.397384 936.285690 531.566696 935.038436 C536.426620 933.126083 540.764938 929.924789 545.426681 927.463851 C553.623763 923.136825 561.767806 918.665450 570.214034 914.879073 C572.994918 913.632369 576.640609 914.221786 579.892318 914.200363 C580.503646 914.196334 581.721908 915.376266 581.644760 915.841354 C580.854110 920.608932 587.058212 924.182662 583.895492 929.464706 C583.503280 930.119674 584.974533 932.553573 586.132980 933.260116 C587.027389 933.805587 589.074752 933.352950 590.112960 932.630538 C599.284042 926.248763 608.239120 920.000045 614.976486 910.412765 C620.987106 901.859603 629.681564 894.715621 639.325485 890.464706 C646.323532 887.380111 654.267013 883.465011 662.721237 888.049056 C668.896835 891.397567 673.043746 895.306381 671.889633 903.184921 C671.405868 906.487289 672.961044 910.283676 673.185958 913.373336 C673.616989 919.294601 671.238265 925.599471 669.224960 931.470687 C667.103500 937.657150 661.971725 942.735092 665.375045 950.517257 C666.457260 952.991744 663.091293 957.284408 662.073409 960.834701 C660.612472 965.930526 662.849838 966.657028 668.390426 966.697738 C681.413619 966.793502 689.119186 957.628219 697.754684 950.670394 C705.047714 944.794235 710.304183 936.461776 717.144882 929.931869 C723.386032 923.974105 730.264083 918.566512 737.396774 913.701217 C742.115951 910.482162 744.132736 911.541305 745.648483 916.862655 C746.767379 920.790634 746.781356 925.024703 747.793258 928.993453 C750.503768 939.624679 747.902145 950.864791 751.716171 961.355453 C753.718185 966.862228 756.673385 968.040572 760.652328 964.050338 C765.221786 959.467758 770.089401 954.810836 773.256759 949.285812 C778.476486 940.180526 782.940475 930.794845 790.968246 923.544357 C792.925704 921.776412 792.658554 917.694869 793.790206 914.825424 C795.218124 911.204513 795.511642 906.391036 800.978378 906.139327 C806.577926 905.881393 809.128829 909.026229 809.750045 914.282943 C810.908981 924.089156 816.412460 933.432235 811.941757 943.883712 C810.616073 946.982955 812.719772 951.509445 811.485092 954.697555 C809.990463 958.556930 812.609847 961.556564 811.957992 965.177047 C811.374557 968.418075 812.676010 972.041183 813.270004 975.390731 C814.761093 983.799056 813.393600 992.518478 808.676620 1000.213607 C808.204086 1000.984603 807.589462 1002.541366 807.817306 1002.715072 C808.718856 1003.402572 809.906356 1003.977767 811.029769 1004.067001 C816.455917 1004.497909 819.550582 1000.144882 823.222701 997.439071 C835.297653 988.542098 847.679367 979.883712 858.684005 969.764205 C868.694869 960.558517 881.962264 955.740829 890.469345 944.628036 C893.473129 940.704147 898.674362 939.284164 903.285018 937.195236 C908.653243 934.763107 912.897018 929.956588 918.097396 927.006454 C921.228622 925.230087 925.228561 924.374984 928.879501 924.242050 C938.865341 923.878463 948.880966 924.368331 958.870223 924.054672 C972.048446 923.640731 985.316085 923.577377 998.352462 921.881576 C1010.128829 920.349777 1021.794479 918.399093 1033.712692 917.883712 C1037.760787 917.708663 1042.255905 915.558456 1045.555587 913.021652 C1051.952804 908.103683 1058.845504 906.138107 1066.746871 906.001693 C1071.463424 905.920333 1077.034713 906.040267 1080.662765 903.676620 C1086.237228 900.044967 1090.803634 903.407516 1093.541793 905.543685 C1099.603073 910.271957 1104.280929 916.815902 1109.318893 922.791366 C1111.166915 924.983260 1112.375411 929.654403 1113.986495 929.705551 C1117.432418 929.814926 1121.377731 928.286727 1124.356246 926.291488 C1132.256271 920.999374 1139.689376 915.016036 1147.428512 909.475631 C1153.000045 905.487167 1159.161178 903.239669 1166.200241 904.099410 C1171.228683 904.713607 1174.856368 908.398239 1175.788864 913.495651 C1176.572433 917.779403 1177.168380 922.276290 1178.968429 926.159042 C1183.040206 934.942062 1183.317550 943.077072 1177.828414 951.418990 C1175.147750 955.492904 1175.634445 955.907089 1177.714523 960.711105 C1178.692550 962.969894 1179.037399 965.598434 1180.380050 967.577133 C1181.742233 969.584640 1181.787765 973.227157 1186.286056 972.294845 C1189.776534 971.571334 1191.418258 970.437240 1191.828170 966.858932 C1192.141281 964.125839 1192.535079 960.859481 1194.177535 958.916000 C1200.937667 950.916732 1207.526290 942.557968 1215.431442 935.796859 C1224.704391 927.865829 1234.027877 919.746383 1245.699386 914.938400 C1252.226364 912.249496 1258.484298 909.611678 1265.702072 910.083358 C1270.520553 910.398300 1275.060836 909.915389 1279.677902 907.593246 C1282.062301 906.393905 1286.051803 907.589462 1289.039352 908.557052 C1294.659591 910.377242 1304.060958 910.724471 1310.148117 908.728195 C1311.916915 908.147994 1313.744796 907.430099 1315.558395 907.392379 C1317.394576 907.354171 1319.322677 907.906051 1321.014450 908.647079 C1321.287277 908.766586 1320.552413 911.221298 1320.259933 912.591537 C1318.756515 919.633773 1316.915573 926.622970 1315.806564 933.726486 C1313.549484 948.183212 1312.436935 962.867599 1309.283615 977.110824 C1308.054611 982.661971 1312.570358 982.223434 1313.790206 984.880782 C1314.002365 985.342880 1316.876388 984.839645 1318.409225 984.395858 C1326.257492 982.123702 1331.035934 976.449020 1335.263473 969.781600 C1338.147628 965.233138 1341.930587 961.188461 1345.678268 957.269027 C1351.438644 951.244491 1356.795822 945.049911 1359.877609 937.124374 C1360.376632 935.840988 1362.418991 935.234359 1363.517257 934.092941 C1367.000411 930.472946 1370.315231 926.690780 1373.806320 923.078658 C1377.703659 919.046249 1382.446456 915.614120 1385.499313 911.038558 C1389.035201 905.739425 1392.336349 910.119613 1395.590743 910.257369 C1399.298629 910.414291 1399.146041 913.725143 1399.892379 916.693771 C1402.102828 925.486434 1405.009811 933.996261 1406.127487 943.170822 C1407.101608 951.166000 1413.739059 951.909225 1420.394943 946.647384 C1431.683029 937.723434 1442.172531 927.706466 1456.817672 923.504196 C1461.540084 922.149093 1462.698287 923.144637 1463.642501 926.354110 C1465.313766 932.035140 1466.619186 937.848190 1467.674117 943.679000 C1468.639327 949.015060 1469.029098 954.453414 1469.782272 959.831344 C1469.895065 960.636276 1470.608200 961.357101 1471.043624 962.116805 C1471.941574 961.486312 1473.061935 961.027938 1473.703659 960.199020 C1481.527145 950.093368 1489.884078 940.573776 1500.980026 933.840560 C1505.613937 931.028732 1517.600753 929.904098 1521.611129 932.116805 C1529.050826 936.221603 1532.526290 946.482833 1531.995773 955.618087 C1531.398605 965.903671 1529.399459 975.613571 1525.767379 985.126449 C1525.545333 985.708236 1525.737838 986.448287 1525.737350 987.114730 C1526.443893 987.075546 1527.273483 987.265548 1527.838180 986.962264 C1534.645675 983.306442 1542.340988 981.835250 1548.683395 976.663741 C1552.991134 973.151168 1559.243331 971.525741 1564.895675 970.273788 C1573.811080 968.299056 1578.625045 961.472274 1583.354415 955.156051 C1589.823898 946.516219 1596.076339 938.288986 1607.429122 936.116805 C1613.850387 928.318343 1621.752609 931.116317 1630.141891 931.708480 C1640.011032 932.404952 1647.363204 936.033431 1653.584274 943.008163 C1659.089157 949.179977 1658.033370 953.488082 1650.657882 956.138046 C1649.214279 956.656722 1647.722335 957.250228 1646.502365 958.148300 C1636.542526 965.479354 1624.920333 968.742355 1613.329391 972.273483 C1610.174117 973.234603 1607.580856 976.076278 1604.777633 978.120712 C1604.305099 978.465255 1603.678634 979.486312 1603.794967 979.622665 C1608.768966 985.460128 1603.060226 991.195907 1603.636642 997.023177 C1604.261520 1003.338729 1607.203292 1006.528549 1613.558273 1006.076156 C1618.007980 1005.759506 1621.980636 1004.379135 1625.630294 1001.375839 C1634.251266 994.281600 1643.226119 987.617111 1652.079147 980.806381 C1652.547897 980.445846 1653.194869 980.236007 1653.789718 980.132369 C1664.346847 978.292404 1672.742721 972.208846 1680.831588 965.838912 C1685.019821 962.540878 1689.406173 962.102340 1694.324630 962.004257 C1697.393600 961.943038 1700.507858 960.999923 1703.484420 960.074752 C1711.216110 957.671493 1719.314376 957.396835 1727.123702 955.829513 C1737.247604 953.797653 1747.378341 955.255294 1757.324874 953.928268 C1771.746871 952.004196 1786.234909 951.141586 1800.633590 949.599288 C1809.421676 948.657943 1818.129196 948.683517 1826.859909 948.143783 C1839.356979 947.371139 1851.898971 947.122421 1864.347213 945.894698 C1867.746261 945.559432 1871.914840 943.289352 1873.932662 940.572250 C1879.325485 933.311324 1887.930709 932.075607 1895.112838 928.527572 C1897.964645 927.118820 1901.152877 926.220992 1903.005294 923.682662 C1905.565719 920.174117 1908.854171 920.147445 1912.591598 920.029891 C1917.495407 919.875472 1919.850265 921.490707 1919.857955 926.729843 C1919.862350 929.787704 1921.747238 932.880111 1921.585617 935.892562 C1921.313644 940.961410 1922.621871 945.935897 1920.091842 951.237899 C1917.872970 955.887924 1918.524948 961.872604 1917.682418 967.232101 C1917.350753 969.341781 1917.004074 971.971542 1915.633590 973.305099 C1909.653243 979.123885 1913.624435 985.728622 1913.879196 991.918685 C1914.045211 995.947311 1916.956100 996.724777 1920.550582 994.303878 C1932.798751 986.054733 1945.325851 978.181808 1957.174972 969.394515 C1962.816085 965.211044 1965.997726 958.210616 1973.143600 955.138900 C1974.702682 954.468673 1977.459640 949.820663 1974.179489 945.113998 C1968.559249 937.049850 1972.479415 927.745406 1973.966354 919.084823 C1974.609909 915.335128 1989.128463 910.759506 1993.921798 912.116805 C1999.178390 913.605148 2004.872970 923.960494 2003.403488 929.434860 C2002.923263 931.224227 2001.266647 933.847640 2001.904830 934.600204 C2005.966476 939.390487 2002.740524 942.070114 1999.688400 945.262435 C1996.498947 948.598495 1996.350997 952.417709 2000.118331 955.405624 C2006.434249 960.414657 2007.188400 968.587753 2011.556442 974.753463 C2014.410934 978.782821 2019.075973 981.949386 2023.764205 981.170150 C2035.806930 979.168319 2046.715133 973.760970 2058.232467 970.225570 C2066.565231 967.667648 2075.161422 965.879562 2083.732467 964.226302 C2087.487350 963.501998 2091.786422 965.050460 2094.339401 960.650192 C2094.604293 960.193588 2096.122848 960.169723 2096.950973 960.378219 C2112.256393 964.234603 2127.845260 962.057723 2143.206100 961.619186 C2149.068160 961.451827 2155.385055 960.999374 2161.374557 960.020553 C2180.045211 956.969100 2199.129196 960.495834 2217.490035 957.683700 C2250.956344 952.558029 2284.428512 955.029830 2317.889450 954.087875 C2323.156051 953.939620 2328.411910 953.132064 2333.672897 953.130050 C2338.858688 953.128036 2344.058639 954.196517 2349.227828 954.030258 C2361.625778 953.631393 2374.250045 954.042465 2386.324508 951.730270 C2396.530075 949.775924 2406.516891 950.870834 2416.566696 950.108993 C2420.142867 949.837936 2423.980758 950.480514 2423.433639 954.663436 C2423.085494 957.325851 2421.182418 961.183944 2416.381393 960.179855 C2411.070114 959.068954 2405.684860 960.956100 2400.038619 958.554000 C2396.843551 957.194625 2391.563766 959.743759 2387.589401 961.407943 C2378.499801 965.214034 2368.840133 965.182235 2359.778121 963.719344 C2351.512008 962.384933 2343.484664 961.911849 2335.200729 961.944442 C2329.818405 961.965682 2324.394088 963.209274 2318.797409 960.648361 C2315.741012 959.249923 2311.182174 961.399215 2307.287887 961.516952 C2296.948287 961.829513 2286.736862 963.175887 2276.251266 960.501632 C2270.806686 959.113143 2264.358444 961.836471 2258.339401 962.477462 C2251.910934 963.162032 2244.780075 965.465316 2239.236862 963.481979 C2235.266891 962.061385 2233.445602 964.169662 2230.693160 964.285568 C2227.607467 964.415756 2224.279586 966.597762 2221.545944 965.918929 C2210.315231 963.130294 2199.275924 962.809860 2188.146530 966.081039 C2187.226119 966.351547 2185.909957 966.508041 2185.195602 966.056320 C2177.957809 961.480636 2171.058883 964.987289 2164.088424 966.777694 C2162.591598 967.162216 2161.045455 968.228988 2159.657272 968.031722 C2142.009567 965.523239 2124.762985 972.709823 2107.135543 970.116805 C2099.552291 973.572555 2090.038375 971.610580 2083.649459 978.868697 C2082.370651 980.321334 2078.601119 980.543685 2076.315231 979.978072 C2067.164108 977.713180 2059.792770 985.355148 2050.939987 984.116805 C2044.188278 991.644515 2034.395797 994.025314 2026.123092 998.970687 C2022.564254 1001.098251 2019.906051 1004.793319 2017.020065 1007.942855 C2016.295455 1008.733749 2015.653366 1010.443588 2016.020065 1011.262557 C2020.411422 1021.074569 2017.171188 1030.289901 2012.228561 1038.217025 C2006.183151 1047.913192 1999.503951 1057.901351 1986.683517 1060.170638 C1980.463302 1066.672592 1971.522018 1065.439315 1963.919845 1067.942245 C1954.988571 1070.882675 1945.534347 1062.664657 1945.666915 1054.086166 C1945.689376 1052.625472 1944.585250 1051.182357 1944.339401 1049.676010 C1943.618453 1045.259261 1942.777389 1040.994125 1945.642867 1036.683090 C1949.414352 1031.009017 1952.157028 1024.641708 1956.024459 1019.043929 C1958.531784 1015.414657 1962.148971 1012.928085 1967.023971 1011.925155 C1972.483566 1010.801986 1976.545333 1004.829940 1974.406051 1000.260604 C1972.342086 995.852523 1975.621871 992.369979 1974.142990 988.039779 C1972.875900 984.329574 1975.100387 979.415817 1975.825851 975.041793 C1976.094772 973.420760 1976.492965 971.821212 1976.832443 970.211837 C1974.792159 970.855453 1972.361373 971.006088 1970.794357 972.247238 C1967.724410 974.678451 1964.683395 977.397872 1962.440231 980.570602 C1957.401046 987.698226 1947.466720 989.062362 1943.369674 997.287887 C1942.680343 998.671737 1940.308761 999.286727 1938.637863 1000.099716 C1933.488815 1002.604720 1928.263961 1004.003280 1924.416793 1009.630721 C1921.831344 1013.412460 1916.077072 1018.601302 1909.065475 1014.592025 C1907.874923 1013.911239 1905.902267 1014.135482 1904.424606 1014.493636 C1892.846847 1017.299789 1881.722335 1011.697372 1877.779708 1000.858016 C1877.458419 999.974960 1878.087570 998.692977 1877.680343 997.903060 C1875.126632 992.949935 1870.591110 988.206588 1870.249191 983.154403 C1869.909957 978.141586 1873.732955 972.845199 1875.739913 967.676864 C1876.297286 966.241744 1876.810470 964.781967 1877.480270 963.399459 C1878.617355 961.052718 1879.862716 958.758407 1881.062545 956.442001 C1878.355636 956.932113 1875.663864 957.541061 1872.938766 957.888412 C1866.586593 958.698043 1860.233077 959.766891 1853.852706 960.009750 C1847.322555 960.258407 1840.984420 962.219467 1834.086715 958.608199 C1830.663131 956.815780 1824.541061 960.212325 1819.629318 961.209335 C1817.769088 961.586959 1815.477584 962.655868 1814.068527 961.979965 C1805.401412 957.822128 1797.414840 960.974227 1789.247604 963.512252 C1787.136642 964.168136 1784.753341 964.035751 1782.490768 964.096603 C1777.850143 964.221542 1772.159225 962.567733 1768.807662 964.676742 C1763.675949 967.905990 1760.539840 963.176742 1756.111617 963.865218 C1740.090743 966.355941 1723.631637 965.845138 1707.967086 970.908676 C1707.095504 971.190414 1705.909835 972.289535 1705.526412 972.031844 C1696.021774 965.646468 1691.171432 974.759384 1684.653243 978.210372 C1679.729904 980.816940 1674.853561 983.512557 1669.920333 986.100021 C1668.012863 987.100448 1665.787765 987.613754 1664.084518 988.863204 C1658.170944 993.201339 1652.568527 997.973251 1646.565475 1002.177352 C1641.728683 1005.564926 1636.463668 1008.337509 1631.429733 1011.449325 C1629.291915 1012.770858 1626.991378 1013.989242 1625.224044 1015.722762 C1617.081832 1023.709335 1611.676559 1025.991683 1600.678268 1026.182845 C1597.538864 1026.237411 1594.262618 1027.910507 1591.317916 1027.371810 C1587.322311 1026.641097 1582.314254 1025.545150 1580.000411 1022.741195 C1575.094161 1016.795150 1571.622848 1009.659164 1567.629196 1002.971542 C1566.845504 1001.659164 1565.995162 1000.207748 1565.838546 998.749130 C1565.677413 997.250411 1566.328292 995.664535 1566.623702 994.116805 C1564.399215 994.379196 1561.344284 993.810348 1560.100143 995.053756 C1555.695846 999.455184 1550.234054 1001.623031 1544.876754 1004.331405 C1541.927291 1005.822616 1539.427658 1009.162704 1537.854904 1012.245345 C1532.218673 1023.293563 1523.335617 1030.636215 1512.633712 1036.319320 C1508.497604 1038.515731 1505.019699 1042.115463 1500.743209 1043.835433 C1496.733810 1045.447982 1491.869064 1046.477767 1487.762130 1045.713607 C1485.366867 1045.267928 1483.466964 1040.948104 1481.788009 1038.108627 C1477.778366 1031.326766 1475.404586 1024.303085 1479.659835 1016.583358 C1480.223556 1015.560775 1479.955612 1013.916610 1479.702560 1012.633285 C1477.840866 1003.192977 1482.614425 995.202621 1485.950851 987.203292 C1490.105880 977.241073 1495.244552 967.699203 1497.738082 957.088241 C1498.116012 955.480270 1498.505172 953.874984 1498.888961 952.268417 C1496.621261 953.382614 1492.852828 949.360336 1491.659713 954.469222 C1491.396163 955.597396 1490.332076 957.098861 1489.325363 957.404952 C1480.856246 959.980270 1476.833663 965.340072 1477.587692 974.355148 C1477.684860 975.517684 1475.610153 976.766647 1474.771530 978.118209 C1469.677047 986.328048 1463.518356 994.018966 1463.624679 1004.541488 C1463.662399 1008.257919 1463.002853 1012.253036 1461.512618 1015.611068 C1460.619796 1017.623031 1457.565353 1019.772811 1455.374435 1019.892806 C1450.112472 1020.180892 1446.594161 1022.857772 1442.716354 1025.869735 C1439.902145 1028.055770 1436.063156 1029.014144 1432.578414 1030.224105 C1427.210372 1032.087875 1425.655685 1031.304427 1425.848922 1025.987045 C1426.117965 1018.585189 1425.343795 1011.288192 1427.333053 1003.707382 C1429.215011 996.535262 1427.737350 988.481551 1427.737350 980.815597 C1427.737350 976.815963 1427.847824 972.812301 1427.701950 968.817977 C1427.587814 965.697433 1429.841720 962.713973 1427.896652 959.381515 C1427.441696 958.601974 1428.949386 956.641342 1429.614913 955.253341 C1430.282882 953.860702 1431.026779 952.504501 1431.737350 951.132247 C1429.895919 951.635055 1427.631149 951.622604 1426.285324 952.728439 C1419.856491 958.011398 1418.088668 965.861984 1415.791061 973.315902 C1414.506881 977.481857 1413.781051 981.818893 1412.771285 986.071151 C1412.485397 987.275009 1411.420944 988.815902 1411.841964 989.583541 C1415.413375 996.097457 1410.892623 997.648666 1406.492355 1000.828109 C1401.474288 1004.453964 1397.392257 1007.767806 1390.618575 1008.916610 C1384.863449 1009.892684 1381.736617 1008.144760 1379.968673 1004.594711 C1377.108932 998.852035 1374.879806 992.495834 1373.937301 986.167343 C1372.506027 976.558273 1372.419479 966.750167 1371.711837 957.030135 C1371.645919 956.122604 1371.224410 955.240951 1370.967819 954.347274 C1370.260787 954.900619 1369.395919 955.334030 1368.870284 956.025314 C1360.223190 967.396774 1351.333785 978.485946 1340.885909 988.377914 C1337.314620 991.759139 1335.397018 997.379196 1333.877120 1002.330306 C1330.911910 1011.989364 1322.716964 1016.125594 1315.461471 1021.356918 C1313.955367 1022.442855 1311.878463 1022.929427 1310.708908 1024.259017 C1302.034957 1034.119613 1290.249435 1034.164291 1278.764938 1033.836776 C1274.614425 1033.718490 1270.093307 1032.050521 1269.390670 1025.244613 C1268.597457 1017.560531 1263.933029 1010.308334 1267.237350 1001.616805 M1645.737350 945.116805 C1646.355148 945.165634 1646.973068 945.214401 1647.590866 945.263229 C1646.973068 944.881088 1646.355148 944.498947 1645.737350 943.116805 C1645.119552 943.068038 1644.501632 943.019210 1643.883834 942.970382 C1644.501632 943.352523 1645.119552 943.734664 1645.737350 945.116805 M1256.737350 976.116805 C1260.460006 972.394210 1264.182662 968.671615 1267.905197 964.949020 C1272.333541 960.520736 1277.158248 956.415328 1281.093063 951.584945 C1286.408859 945.059066 1291.555709 938.330734 1294.650314 930.292526 C1295.952804 926.909530 1297.709762 924.015304 1291.799728 924.018600 C1290.755538 924.019210 1289.673507 922.785323 1288.672409 922.036727 C1284.485153 918.905685 1280.856491 919.860946 1276.338424 922.208602 C1269.985885 925.509506 1265.623214 930.506210 1261.137374 935.671798 C1252.477340 945.643966 1248.159103 957.539962 1245.894576 970.248458 C1245.509445 972.409957 1246.574996 975.492904 1248.071212 977.165023 C1250.108932 979.442306 1252.819137 978.551559 1256.737350 976.116805 M745.737350 1105.116805 C745.070724 1105.839584 743.854171 1106.537704 743.820480 1107.288925 C743.372482 1117.272689 740.119430 1125.922103 734.837020 1134.639388 C730.574630 1141.673446 727.929367 1150.642806 730.012252 1159.358016 C730.646713 1162.012924 734.306930 1165.230087 737.032272 1165.729354 C739.627975 1166.205062 744.759567 1164.055892 745.366805 1162.035873 C747.090194 1156.303207 747.272079 1150.060653 747.694320 1143.993148 C748.508407 1132.292587 749.069625 1120.574325 749.740341 1108.863510 C749.777145 1108.220931 749.811508 1107.572738 749.922897 1106.940536 C750.359176 1104.465072 750.370468 1104.467025 745.737350 1105.116805 M1613.737350 945.116805 C1613.271285 946.249618 1612.893356 947.429000 1612.324142 948.507430 C1609.417282 954.013595 1614.197555 957.544479 1616.435104 961.152511 C1617.270309 962.499252 1623.671066 962.195602 1625.917037 960.501022 C1631.018234 956.652145 1635.856979 952.908187 1642.405319 952.027267 C1642.936569 951.955795 1643.687057 950.581222 1643.621871 949.878341 C1643.563156 949.244003 1642.568160 948.247299 1641.912643 948.185104 C1632.777999 947.319198 1624.216842 942.603256 1613.737350 945.116805 M1985.737350 927.116805 C1985.097579 929.143661 1984.457809 931.170516 1983.817916 933.197311 C1986.273727 933.354476 1988.838302 934.018478 1991.154098 933.522201 C1993.346237 933.052291 1995.130050 926.378524 1993.363082 925.117172 C1992.276412 924.341659 1989.660934 925.719650 1987.727218 926.107772 C1987.409469 926.171554 1987.067916 926.116805 1985.737350 927.116805 M1786.737350 956.116805 C1785.850143 956.337325 1784.962936 956.557906 1784.075729 956.778426 C1786.516769 956.778426 1788.957931 956.778426 1791.398971 956.778426 C1790.511764 956.557906 1789.624557 956.337325 1786.737350 956.116805 M1223.737350 941.116805 C1223.556442 940.269149 1223.375534 939.421554 1223.194503 938.573959 C1222.194503 939.573959 1221.194503 940.573959 1220.194503 941.573898 C1221.042159 941.754867 1221.889694 941.935836 1223.737350 941.116805 M1291.737350 915.116805 C1291.085006 915.769210 1290.432540 916.421554 1289.780197 917.073898 C1290.816696 917.370773 1291.853195 917.667587 1292.889816 917.964462 C1292.839034 916.681930 1292.788253 915.399337 1291.737350 915.116805 M1366.737350 938.116805 C1365.824630 939.204086 1364.911910 940.291366 1363.999191 941.378646 C1364.512374 941.624679 1365.370529 942.188705 1365.483444 942.065963 C1366.318160 941.159774 1367.004440 940.116744 1366.737350 938.116805 M1273.737350 917.116805 C1272.678634 916.842208 1271.622116 916.556014 1270.550460 916.348434 C1270.517867 916.342086 1270.326217 917.156478 1270.208785 917.588180 C1271.051681 917.764388 1271.894454 917.940597 1273.737350 917.116805 M1264.737228 918.116744 C1265.003951 917.716781 1265.270675 917.316757 1265.537399 916.916732 C1264.937423 916.983383 1264.337325 917.050094 1264.737228 918.116744 M1244.737350 922.116805 C1244.470748 922.516830 1244.204025 922.916854 1243.937301 923.316879 C1244.537277 923.250167 1245.137374 923.183517 1244.737350 922.116805 M1201.737350 959.116805 C1202.137374 959.383468 1202.537277 959.650131 1202.937301 959.916793 C1202.870651 959.316818 1202.804000 958.716781 1201.737350 959.116805 M1767.737350 959.116805 C1768.137374 959.383468 1768.537277 959.650131 1768.937179 959.916793 C1768.870529 959.316818 1768.803878 958.716781 1767.737350 959.116805 M1285.737350 985.116805 C1286.137374 985.383468 1286.537277 985.650131 1286.937301 985.916793 C1286.870651 985.316818 1286.804000 984.716781 1285.737350 985.116805 M1496.737472 986.116866 C1496.470748 986.516891 1496.204025 986.916854 1495.937301 987.316757 C1496.537277 987.250106 1497.137374 987.183456 1496.737472 986.116866 M1509.737350 1023.116805 C1509.337325 1022.850082 1508.937423 1022.583480 1508.537399 1022.316757 C1508.604049 1022.916732 1508.670700 1023.516830 1509.737350 1023.116805 z"/><path class="selected"  fill="#000000" opacity="1.000000" stroke="none" 
 	d="
M771.737350 730.116805 C771.070724 723.394943 769.919174 717.677291 769.869918 711.950118 C769.817733 705.886093 769.829574 699.893356 771.235458 693.672714 C772.416793 688.445480 768.264511 682.637008 771.370651 676.270492 C772.840743 673.257247 769.924117 668.348434 769.835067 664.280074 C769.635665 655.175765 770.938888 646.146285 769.962570 636.924972 C768.950790 627.368697 769.492843 617.614303 769.795455 607.960433 C770.236129 593.900985 770.821700 579.836410 771.806869 565.806442 C772.804244 551.602645 784.092208 535.631881 796.502548 530.514694 C798.396346 529.733749 801.915206 529.561080 802.988693 530.701522 C807.583969 535.583236 812.474594 540.607894 815.357406 546.508773 C816.869430 549.603622 817.626388 553.439254 819.316818 556.844589 C822.051681 562.354049 820.354171 568.100082 819.147872 573.747970 C818.722030 575.741927 817.736251 578.573226 818.647079 579.729293 C822.484420 584.599471 821.685531 590.089095 821.721786 595.505782 C821.779769 604.169113 822.054733 612.848617 821.633102 621.491805 C821.317428 627.962936 823.151718 634.215194 822.011947 640.879928 C820.793807 648.002487 821.737350 655.494674 821.737350 662.825546 C821.737350 669.823165 821.527267 676.829879 821.827377 683.814620 C821.973983 687.226241 822.821884 690.669784 823.787277 693.971725 C826.069686 701.779037 828.191513 703.629928 835.532455 704.065231 C840.181198 704.340988 844.913925 704.569259 849.512741 704.017318 C857.666793 703.038619 865.779220 701.612472 873.844161 700.040511 C877.289840 699.368881 877.851669 696.507797 877.796066 693.239791 C877.631759 683.579147 877.828536 673.912826 877.714889 664.250778 C877.562606 651.308700 879.236984 638.662948 881.364791 625.858993 C883.795577 611.231551 888.212509 596.880172 889.296737 582.217819 C890.013107 572.529891 892.453292 563.365218 893.868881 553.937179 C894.846237 547.427657 896.836471 541.053390 902.333053 536.464889 C907.375961 532.255050 911.586044 533.306442 913.752609 539.499435 C915.176498 543.569503 916.790939 547.572738 918.230148 551.637801 C918.849838 553.387924 920.101730 555.526290 919.588912 556.959640 C917.336227 563.255782 919.793563 568.855087 921.169845 574.729476 C921.586288 576.506942 919.668746 578.746383 919.846420 580.679916 C920.434127 587.072799 919.414413 593.343734 921.269943 599.985336 C923.185775 606.842819 923.751205 614.492782 922.076034 622.262801 C920.497177 629.586471 919.890243 638.155868 922.254928 645.003280 C924.636886 651.900802 918.374313 658.668380 923.737350 664.689315 C919.514633 681.265670 922.790267 698.141525 921.694320 714.840926 C921.616500 716.026840 921.147567 717.324752 920.477218 718.309799 C918.006332 721.940292 917.214401 725.919479 917.759933 730.178268 C918.215927 733.737350 919.276473 737.266158 919.319137 740.817428 C919.359481 744.183822 918.576156 747.594406 917.858200 750.921554 C917.475753 752.694015 915.539230 754.555648 915.888107 755.992294 C918.098861 765.095565 910.961227 767.057906 905.369613 769.231857 C898.522872 771.893844 891.595321 769.969528 885.221664 766.547531 C884.378341 766.094833 883.248397 765.226486 883.165634 764.452865 C882.289901 756.271346 875.565597 750.043807 875.703109 741.512374 C875.853500 732.184615 875.673995 722.851852 875.780563 713.522872 C875.808212 711.101913 875.361923 709.808151 872.555953 710.084701 C864.843978 710.844467 857.112472 711.407028 849.402023 712.180038 C848.583785 712.262069 847.762313 713.128097 847.096725 713.786544 C842.122116 718.707748 836.920272 723.434554 832.311752 728.680892 C827.568466 734.080551 826.523605 740.954025 827.854171 747.721908 C830.063217 758.958663 820.927658 763.184738 815.171493 769.476913 C814.356552 770.367782 812.097701 770.075546 810.504623 770.091964 C804.507247 770.153793 798.376510 769.335128 792.545883 770.322982 C785.882125 771.451949 783.247909 767.284408 782.021346 762.887313 C780.870407 758.761215 779.209152 755.424301 776.789535 751.989852 C772.442123 745.819137 770.658981 738.743270 771.737350 730.116805 M896.737350 760.116805 C896.152450 764.264572 899.003280 764.197372 901.734237 764.056442 C902.311202 764.026656 902.848434 763.227889 903.404037 762.783492 C902.534225 762.561263 901.567489 762.505599 900.820846 762.071578 C900.018661 761.605209 899.423080 760.783492 896.737350 760.116805 M777.737350 595.116805 C779.070663 595.107284 780.406112 595.121444 781.730209 595.005966 C781.786239 595.001083 781.786239 593.232467 781.730209 593.227584 C780.406112 593.112106 779.070663 593.126327 777.737350 595.116805 M895.737289 577.116805 C895.952804 577.998947 896.168258 578.881088 896.383773 579.763229 C896.834945 579.214401 897.751876 578.283065 897.664474 578.176681 C896.887496 577.230819 899.750839 573.885604 895.737289 577.116805 M894.737411 588.116805 C894.462814 589.175521 894.176559 590.232040 893.968978 591.303756 C893.962692 591.336349 894.777023 591.527938 895.208663 591.645431 C895.384872 590.802535 895.561080 589.959640 894.737411 588.116805 M783.737350 573.116805 C783.337325 572.850143 782.937362 572.583480 782.537338 572.316818 C782.603988 572.916793 782.670638 573.516830 783.737350 573.116805 M885.737350 731.116805 C885.337387 730.850143 884.937362 730.583480 884.537277 730.316818 C884.603988 730.916793 884.670638 731.516830 885.737350 731.116805 M803.737350 541.116805 C804.137374 541.383468 804.537338 541.650131 804.937362 541.916793 C804.870651 541.316818 804.804000 540.716781 803.737350 541.116805 M907.737350 685.116805 C908.137313 685.383468 908.537338 685.650131 908.937362 685.916793 C908.870712 685.316818 908.804000 684.716781 907.737350 685.116805 z"/><path class="selected"  fill="#000000" opacity="1.000000" stroke="none" 
 	d="
M1310.237350 1101.616805 C1314.466354 1107.179183 1318.407882 1112.104232 1321.815109 1117.374618 C1323.094406 1119.353622 1324.445358 1123.045272 1323.510543 1124.393051 C1319.428390 1130.277694 1322.721725 1134.813217 1326.553512 1137.575790 C1335.325241 1143.900375 1336.491989 1152.242050 1335.883102 1161.916488 C1335.652145 1165.582382 1335.865890 1170.446151 1338.019699 1172.818343 C1341.252365 1176.379135 1338.009567 1179.132064 1338.715621 1182.019149 C1341.596603 1193.796371 1343.626998 1205.944076 1348.043868 1217.137191 C1352.403121 1228.184432 1351.451827 1239.644271 1353.742599 1250.759139 C1354.373947 1253.822494 1355.410201 1256.842635 1355.679244 1259.933212 C1356.913497 1274.112289 1362.873702 1287.341415 1363.900802 1301.586898 C1364.083175 1304.116561 1366.447189 1306.469711 1367.728195 1308.943466 C1370.343917 1313.994613 1369.741012 1316.715804 1365.502609 1319.351547 C1362.480758 1321.230575 1357.923385 1319.668685 1355.802535 1315.413680 C1352.231491 1308.249252 1348.751510 1301.005477 1345.835128 1293.559188 C1343.361129 1287.242538 1340.808883 1280.692977 1340.092575 1274.052230 C1339.676681 1270.197128 1337.458175 1269.414291 1335.574630 1269.168807 C1330.510421 1268.508163 1325.061691 1267.708602 1320.249679 1268.907211 C1312.531539 1270.829940 1305.394699 1275.166366 1297.657760 1276.910262 C1289.572921 1278.732772 1286.396041 1284.270614 1286.047164 1290.850326 C1285.690841 1297.567123 1283.288864 1302.947616 1280.392013 1308.622909 C1277.702438 1313.891952 1275.612594 1319.431991 1275.527877 1325.675155 C1275.494308 1328.148666 1273.637374 1331.151473 1271.708297 1332.939926 C1266.248580 1338.001693 1259.316207 1341.983260 1252.158126 1339.107284 C1244.422042 1335.999252 1238.378829 1330.221786 1237.600509 1320.528182 C1237.006149 1313.122787 1237.434371 1306.181869 1239.495773 1298.942123 C1241.315963 1292.549056 1240.754318 1285.517928 1241.809860 1278.858138 C1243.484298 1268.291976 1247.057540 1257.821884 1247.215621 1247.272079 C1247.413619 1234.063827 1253.832321 1223.263778 1257.307907 1211.341659 C1258.984176 1205.592025 1258.779952 1199.319320 1259.776046 1193.341659 C1262.440353 1177.351425 1267.165939 1161.899642 1272.244430 1146.538558 C1273.319137 1143.287582 1273.155685 1139.561385 1274.534957 1136.490951 C1277.190719 1130.579208 1280.554489 1124.986556 1283.597824 1119.247421 C1285.044967 1116.518539 1286.444137 1113.764022 1287.841110 1111.009017 C1291.708541 1103.381332 1299.859176 1099.693466 1310.237350 1101.616805 M1305.737350 1229.116805 C1304.099777 1234.754379 1303.009323 1240.634017 1300.657028 1245.955673 C1298.654708 1250.485458 1301.868942 1252.686019 1304.065963 1253.855819 C1307.235519 1255.543197 1312.204391 1257.105941 1314.869552 1255.735336 C1319.045944 1253.587509 1321.963302 1255.706405 1325.368942 1256.169051 C1328.450607 1256.587631 1331.492965 1257.368148 1334.515060 1258.136703 C1338.766647 1259.217635 1340.950118 1257.983383 1339.551193 1254.507552 C1336.990402 1248.144393 1337.991622 1241.061874 1333.943649 1234.821395 C1331.072555 1230.395248 1331.296554 1224.049911 1329.656784 1218.709213 C1328.309982 1214.323104 1326.762496 1209.825546 1324.304000 1206.024154 C1323.001876 1204.010482 1319.632736 1202.718368 1317.064498 1202.470687 C1316.157394 1202.383163 1314.627731 1206.278793 1313.781051 1208.507430 C1311.377609 1214.835433 1312.025680 1222.463729 1305.737350 1229.116805 z"/><path class="selected"  fill="#000000" opacity="1.000000" stroke="none" 
 	d="
M1803.737350 1320.116805 C1802.095138 1329.989974 1799.971237 1331.594467 1791.820846 1332.209213 C1783.514572 1332.835677 1776.366867 1329.738021 1771.299362 1324.142440 C1767.653121 1320.116317 1761.414352 1320.475204 1759.049606 1314.701644 C1757.184249 1310.146835 1753.595870 1306.295760 1750.759323 1302.141219 C1742.422409 1289.931014 1733.984054 1277.788436 1725.782516 1265.487899 C1722.363571 1260.360214 1716.843917 1258.597885 1711.800338 1256.270736 C1708.600875 1254.794418 1704.906417 1256.314437 1703.397750 1259.601180 C1699.664352 1267.735458 1689.605514 1270.573837 1687.052169 1279.661605 C1686.659103 1281.060409 1685.007247 1282.636825 1683.591476 1283.122543 C1678.221847 1284.964706 1676.984420 1290.510238 1673.518112 1293.717635 C1664.821212 1301.764388 1663.045944 1314.026351 1654.769210 1322.089095 C1649.962081 1326.771713 1641.722335 1330.111556 1640.623458 1327.687484 C1638.533004 1323.076522 1638.211227 1317.838363 1640.035934 1312.847274 C1642.458053 1306.221542 1646.088790 1300.588851 1651.163986 1295.373885 C1661.823409 1284.421615 1671.598434 1272.607650 1681.701583 1261.116561 C1682.517623 1260.188461 1683.368820 1259.105453 1683.676315 1257.953597 C1684.388595 1255.285629 1681.849166 1248.850326 1688.667526 1254.047103 C1693.380172 1248.714218 1698.713546 1243.795150 1702.624923 1237.928207 C1706.288009 1232.433944 1701.978317 1227.007064 1699.609420 1222.158798 C1695.397872 1213.538925 1690.899581 1204.969344 1685.571823 1197.014633 C1681.698409 1191.231185 1679.734176 1183.916366 1673.135421 1180.034408 C1672.330001 1179.560531 1671.722091 1177.920883 1671.809249 1176.887801 C1672.658981 1166.813339 1667.615768 1158.644393 1662.988326 1150.530013 C1657.977340 1141.743148 1658.745651 1130.430282 1665.539596 1123.256088 C1668.558273 1120.068343 1671.454269 1117.007797 1676.426803 1118.110580 C1677.350021 1118.315292 1678.508224 1118.145248 1679.190231 1118.647567 C1687.567916 1124.817977 1696.973922 1129.907455 1701.768600 1139.910018 C1702.440841 1141.312484 1703.245040 1142.986434 1704.474899 1143.733505 C1713.803146 1149.399642 1718.409347 1158.932723 1723.506759 1167.763534 C1726.478317 1172.911483 1729.854049 1174.540756 1735.177291 1174.135360 C1740.696090 1173.715072 1746.286910 1173.840072 1751.737228 1173.010970 C1760.289840 1171.709701 1766.413131 1165.746566 1772.369308 1160.266097 C1782.372970 1151.061630 1791.655441 1141.077133 1801.381271 1131.563949 C1803.627487 1129.366683 1806.249435 1127.383285 1809.028610 1125.934921 C1815.919357 1122.343978 1822.637374 1124.299423 1825.300704 1130.921127 C1826.115158 1132.946029 1825.759445 1136.556136 1824.408859 1138.107406 C1821.502120 1141.446395 1817.894088 1144.437362 1814.035446 1146.621078 C1808.792648 1149.588241 1805.068527 1153.211654 1803.603927 1159.243148 C1803.161178 1161.066268 1801.324020 1163.643417 1799.787155 1163.907699 C1794.740646 1164.775863 1790.246139 1164.963241 1787.458419 1170.822982 C1785.591354 1174.747909 1781.329879 1177.743881 1777.688156 1180.574569 C1767.222213 1188.710189 1762.021652 1200.191390 1756.944503 1211.841415 C1756.203659 1213.541488 1754.988449 1215.119613 1753.702316 1216.479232 C1751.152633 1219.174545 1752.230392 1220.757308 1754.024337 1223.776229 C1759.124313 1232.358505 1764.741744 1240.379867 1771.895919 1247.343856 C1772.746871 1248.172103 1773.686569 1249.494735 1773.650314 1250.556381 C1773.348922 1259.379501 1779.372482 1265.052352 1784.052291 1271.243148 C1786.785934 1274.859115 1788.757247 1278.317123 1790.004562 1282.847640 C1792.029098 1290.202377 1795.199752 1297.408431 1798.976608 1304.058090 C1801.730392 1308.906600 1803.820602 1313.559188 1803.737350 1320.116805 z"/><path class="selected"  fill="#000000" opacity="1.000000" stroke="none" 
 	d="
M965.737350 700.116805 C964.991378 695.077010 967.619674 690.482223 963.737350 686.958358 C967.536056 680.714340 961.006454 673.736617 965.376815 667.286483 C968.291488 662.984969 962.092330 657.818343 965.721847 653.132308 C961.719222 649.352279 964.262496 645.621932 965.670516 641.784164 C966.101180 640.610214 965.675399 639.141342 965.747054 637.813278 C966.397262 625.767623 965.412582 613.314071 968.252242 601.805526 C970.601608 592.283859 970.114547 582.361007 973.590255 573.137496 C974.249374 571.388595 974.035018 569.133590 973.683456 567.210922 C972.046798 558.261398 975.858077 550.063033 978.251937 542.038619 C979.484054 537.908431 985.687057 534.600875 990.334762 532.344894 C994.558151 530.294845 997.330490 534.317367 999.769943 537.495345 C1000.556686 538.520431 1001.692062 539.952499 1002.727218 540.003768 C1009.816451 540.355331 1016.819747 540.645065 1023.928390 541.746505 C1030.712081 542.797592 1037.986373 540.915572 1045.015914 540.078719 C1051.723068 539.280258 1058.325729 540.768966 1065.321823 538.605026 C1070.960006 536.861129 1078.015548 539.080123 1084.266525 540.383834 C1085.779464 540.699325 1086.599044 544.339584 1087.737350 546.450973 C1086.099410 547.006271 1084.480514 547.969222 1082.820114 548.047103 C1075.178634 548.405685 1067.005294 546.454818 1061.120284 553.664413 C1060.808395 554.046493 1059.682296 554.309554 1059.373214 554.067794 C1052.318649 548.550521 1049.898117 555.868759 1046.004440 558.906234 C1044.440963 560.125961 1043.331466 561.957809 1041.713424 563.072372 C1027.733810 572.700912 1023.493820 588.603011 1016.549850 602.646224 C1014.823654 606.137313 1016.449386 611.141708 1015.563888 615.240829 C1014.922531 618.210311 1018.355148 620.402877 1015.944015 623.759750 C1014.281906 626.073898 1013.972213 629.815536 1014.123458 632.866439 C1014.336593 637.167220 1014.742355 641.783676 1016.499435 645.606124 C1019.101608 651.266708 1018.339157 656.819564 1015.376510 661.030990 C1011.824142 666.080673 1011.484176 671.147018 1011.805099 676.578231 C1012.183151 682.979110 1012.769454 689.401534 1013.851852 695.714034 C1014.487838 699.422958 1017.190109 702.029159 1021.272628 702.078903 C1030.928024 702.196700 1040.642135 702.744735 1050.222457 701.888412 C1056.261032 701.348678 1062.104537 698.599410 1068.028976 696.819259 C1071.208419 695.863876 1074.386032 695.023361 1076.817672 698.256637 C1077.345382 698.958419 1077.961227 700.437240 1077.654586 700.788986 C1075.367477 703.411788 1073.538742 706.068466 1069.084640 706.299484 C1055.514816 707.003341 1043.369552 711.477401 1033.350997 721.303634 C1029.095016 725.477950 1023.466110 728.228866 1019.032028 732.255416 C1016.928878 734.165389 1011.669723 735.013290 1014.862716 740.419296 C1017.607955 745.067306 1021.207565 747.812118 1026.025680 746.782699 C1033.034835 745.285140 1040.387985 744.445724 1046.853317 741.626083 C1053.134933 738.886520 1059.151779 740.923263 1065.233200 740.296188 C1066.615035 740.153671 1068.229782 742.269271 1069.737350 743.345443 C1068.546798 744.459762 1067.340377 745.557662 1066.168746 746.691512 C1062.603561 750.141281 1058.144699 749.943771 1053.603927 750.190475 C1035.507980 751.173873 1020.369674 759.860946 1005.669235 769.391097 C1004.439620 770.188217 1004.372116 772.757308 1003.734298 774.492111 C1000.874435 782.271835 994.071212 787.576156 987.163375 785.904342 C981.738143 784.591354 976.651473 781.766647 973.181930 776.654952 C965.418624 765.217269 961.092330 753.210189 965.520858 739.333297 C961.388107 733.205612 967.044601 727.352767 965.980392 721.058944 C964.885421 714.582992 965.737350 707.777877 965.737350 700.116805 M995.737350 543.116805 C995.119552 543.068038 994.501632 543.019210 993.883834 542.970382 C994.501632 543.352523 995.119552 543.734664 995.737350 545.116744 C996.355148 545.165572 996.973068 545.214401 997.590866 545.263229 C996.973068 544.881088 996.355148 544.498947 995.737350 543.116805 M1024.737350 710.116805 C1026.768600 710.752242 1028.799728 711.387679 1030.830978 712.023116 C1030.966354 711.554305 1031.279098 710.703719 1031.211593 710.672347 C1029.268478 709.770065 1027.311691 708.878646 1025.289474 708.182174 C1024.922775 708.055953 1024.262252 708.783431 1024.737350 710.116805 M1038.737350 706.116866 C1038.051681 706.783492 1037.456100 707.605270 1036.653854 708.071578 C1035.907272 708.505660 1034.940475 708.561263 1034.070724 708.783492 C1034.626266 709.227950 1035.144210 709.990157 1035.743942 710.061141 C1038.207931 710.353134 1038.335250 710.181320 1038.737350 706.116866 M1010.737350 550.116805 C1011.635177 549.681320 1012.533126 549.245834 1013.430953 548.810470 C1012.102096 548.148300 1010.831954 547.229965 1009.425216 546.908370 C1008.380783 546.669662 1007.159347 547.205428 1006.016769 547.396224 C1006.923629 548.303085 1007.830490 549.209945 1010.737350 550.116805 M1016.737228 718.116805 C1016.535201 719.248092 1016.333175 720.379379 1016.131271 721.510726 C1017.301315 720.744735 1018.471359 719.978744 1019.641403 719.212753 C1019.006637 718.514144 1018.371993 717.815475 1016.737228 718.116805 M1012.737350 590.116805 C1013.333297 588.712753 1014.068405 587.341415 1014.412521 585.878158 C1014.484909 585.570419 1013.121139 584.924911 1012.418991 584.435104 C1012.191818 585.995651 1011.964523 587.556259 1012.737350 590.116805 M986.737350 772.116866 C985.737350 772.881698 984.737350 773.646530 983.737350 774.411300 C984.305831 774.979781 984.874374 775.548324 985.442916 776.116866 C986.207687 775.116866 986.972579 774.116866 986.737350 772.116866 M1017.737350 707.116805 C1016.403976 707.126327 1015.068649 707.112106 1013.744552 707.227584 C1013.688522 707.232467 1013.688522 709.001022 1013.744552 709.005905 C1015.068649 709.121444 1016.403976 709.107223 1017.737350 707.116805 M977.737350 587.116805 C977.952804 587.998947 978.168258 588.881088 978.383834 589.763290 C978.835006 589.214462 979.751876 588.283065 979.664474 588.176681 C978.887557 587.230758 981.750839 583.885604 977.737350 587.116805 M993.737350 555.116805 C992.650070 554.204086 991.562789 553.291366 990.475509 552.378646 C990.229537 552.891830 989.665573 553.750106 989.788131 553.862960 C990.694381 554.697677 991.737350 555.383895 993.737350 555.116805 M971.737411 763.116805 C971.952865 763.998947 972.168319 764.881088 972.383773 765.763229 C972.834945 765.214401 973.751815 764.283004 973.664474 764.176681 C972.887496 763.230819 975.750839 759.885604 971.737411 763.116805 M990.737350 538.116866 C990.519943 538.334274 990.257247 538.524032 990.101242 538.779098 C990.000534 538.943710 990.056320 539.204086 990.042037 539.421554 C991.273849 539.248153 992.505538 539.074752 993.737350 538.901351 C993.070724 538.306503 992.403976 537.711654 990.737350 538.116866 M1025.737350 559.116805 C1027.168868 559.450179 1028.588302 559.875717 1030.038619 560.063644 C1030.507614 560.124374 1031.057540 559.561447 1031.570358 559.283859 C1030.901046 558.894821 1030.272262 558.320236 1029.552291 558.163741 C1028.653121 557.968246 1027.679122 558.116805 1025.737350 559.116805 M973.737350 721.116805 C974.389694 720.464401 975.042037 719.812057 975.694442 719.159713 C974.657943 718.862899 973.621505 718.566024 972.585006 718.269149 C972.635787 719.551681 972.686569 720.834274 973.737350 721.116805 M1025.737350 719.116744 C1026.403976 718.783431 1027.070724 718.450118 1027.737350 718.116805 C1027.070724 717.783431 1026.403976 717.450118 1025.737350 719.116744 M983.737350 543.116805 C984.796066 543.391403 985.852584 543.677535 986.924240 543.885116 C986.956832 543.891464 987.148361 543.077133 987.265914 542.645431 C986.423019 542.469222 985.580184 542.293014 983.737350 543.116805 M1019.737350 553.116805 C1018.678634 552.842208 1017.622238 552.555953 1016.550460 552.348495 C1016.517745 552.342147 1016.326217 553.156478 1016.208785 553.588180 C1017.051681 553.764388 1017.894454 553.940597 1019.737350 553.116805 M977.737350 595.116744 C977.070663 595.450057 976.403976 595.783431 975.737350 596.116805 C976.404037 596.450118 977.070663 596.783492 977.737350 595.116744 M1009.737350 651.116805 C1009.337325 650.850143 1008.937423 650.583480 1008.537399 650.316818 C1008.604049 650.916793 1008.670700 651.516830 1009.737350 651.116805 M1007.737350 661.116744 C1008.137374 661.383407 1008.537399 661.650070 1008.937301 661.916793 C1008.870651 661.316818 1008.804000 660.716781 1007.737350 661.116744 M1028.737472 552.116866 C1029.004074 551.716842 1029.270797 551.316818 1029.537399 550.916732 C1028.937423 550.983444 1028.337325 551.050094 1028.737472 552.116866 M1009.737350 623.116805 C1009.337325 622.850143 1008.937423 622.583480 1008.537399 622.316818 C1008.604049 622.916793 1008.670700 623.516830 1009.737350 623.116805 M1021.737350 575.116805 C1022.137374 575.383468 1022.537277 575.650131 1022.937301 575.916793 C1022.870651 575.316818 1022.804000 574.716781 1021.737350 575.116805 M979.737350 557.116805 C980.137313 557.383468 980.537338 557.650131 980.937362 557.916793 C980.870712 557.316818 980.804000 556.716781 979.737350 557.116805 M1039.737350 545.116805 C1039.337325 544.850143 1038.937423 544.583480 1038.537399 544.316818 C1038.604049 544.916793 1038.670700 545.516830 1039.737350 545.116805 M1025.737350 569.116805 C1025.337325 568.850143 1024.937423 568.583480 1024.537399 568.316818 C1024.604049 568.916793 1024.670700 569.516830 1025.737350 569.116805 M981.737350 565.116805 C982.137374 565.383468 982.537338 565.650131 982.937362 565.916793 C982.870651 565.316818 982.804000 564.716781 981.737350 565.116805 z"/><path class="selected"  fill="#000000" opacity="1.000000" stroke="none" 
 	d="
M1506.237350 728.616805 C1500.873702 734.783431 1496.086593 740.518478 1491.111251 746.085311 C1488.925949 748.530502 1486.473678 750.777023 1483.921432 752.840133 C1482.255294 754.186874 1480.270187 755.733138 1478.288009 755.958541 C1475.130660 756.317489 1473.102706 756.900802 1471.489669 760.174301 C1470.533737 762.114486 1467.097213 763.960983 1464.813522 763.916793 C1456.422042 763.754257 1448.039352 762.852950 1439.672775 762.032333 C1438.580001 761.925033 1437.517013 760.762252 1436.586349 759.925704 C1435.102706 758.591842 1433.908859 756.886093 1432.302780 755.745590 C1418.940597 746.256698 1415.289230 731.091049 1409.876754 717.061447 C1408.196090 712.705001 1408.655197 707.467880 1408.283737 702.914352 C1407.162765 689.170333 1403.595504 675.361434 1409.137985 661.247970 C1412.974655 651.477706 1413.656417 640.467269 1415.720870 630.005660 C1415.847335 629.364669 1415.467086 628.492355 1415.777145 628.038192 C1422.288131 618.502853 1421.975387 606.656844 1426.491867 596.505355 C1429.250167 590.305587 1432.105636 583.772567 1436.486984 578.761581 C1442.680221 571.678573 1450.676681 566.203597 1457.234664 559.397872 C1462.366378 554.072128 1469.473922 553.404464 1475.333053 552.630721 C1486.216720 551.193405 1497.019332 551.501876 1507.787399 558.292770 C1517.513107 564.426315 1523.765914 574.211837 1533.930221 579.309676 C1536.120040 586.174056 1542.345748 590.517074 1544.356491 598.058944 C1545.623458 602.811324 1547.598190 607.375778 1547.835006 612.546432 C1547.998336 616.110702 1547.259567 636.952316 1546.550704 640.361984 C1545.283126 646.458602 1545.944992 653.048995 1541.737350 658.357833 C1544.745651 666.231490 1539.223800 671.278976 1535.864425 677.263595 C1532.567306 683.137313 1532.579025 690.501510 1527.781295 695.895309 C1523.746627 700.431442 1523.666061 707.011215 1520.634445 711.845809 C1516.885787 717.823593 1511.446334 722.741134 1506.237350 728.616805 M1536.737350 656.116805 C1537.004074 655.050155 1537.270797 653.983444 1537.537399 652.916793 C1537.101730 652.819198 1536.665939 652.721542 1536.230270 652.623885 C1536.065963 653.788192 1535.901657 654.952499 1534.737350 656.116805 C1534.688522 656.734664 1534.639694 657.352523 1534.590866 657.970382 C1534.973068 657.352523 1535.355148 656.734664 1536.737350 656.116805 M1532.737350 666.116805 C1532.403976 667.450118 1532.070724 668.783492 1530.737350 670.116805 C1530.688522 670.734664 1530.639694 671.352523 1530.590743 671.970321 C1530.972946 671.352462 1531.355148 670.734603 1532.737350 670.116805 C1533.070602 668.783431 1533.403976 667.450118 1534.737228 666.116805 C1535.003951 665.050094 1535.270675 663.983444 1535.537399 662.916793 C1535.101730 662.819137 1534.665939 662.721542 1534.230270 662.623885 C1534.065963 663.788192 1533.901657 664.952499 1532.737350 666.116805 M1455.737350 675.116805 C1455.845748 681.225570 1455.251754 687.300399 1457.590743 693.315536 C1459.046432 697.059127 1459.414230 701.339156 1459.654098 705.414657 C1459.985763 711.053024 1459.753951 716.725448 1459.733077 722.383224 C1459.709274 728.820175 1463.113204 733.696517 1467.001144 738.334091 C1467.523117 738.956588 1468.387863 739.291976 1469.093795 739.760299 C1472.445846 733.348800 1480.693649 734.700790 1484.934005 729.850448 C1490.013961 724.039718 1495.010787 718.134506 1499.689620 712.000289 C1506.016769 703.705306 1512.088058 695.210372 1518.099044 686.681259 C1520.234786 683.650802 1522.687789 680.480941 1523.588790 677.009567 C1526.644332 665.235336 1529.479904 653.368636 1531.552291 641.390670 C1532.487228 635.987045 1531.914108 630.169601 1531.153732 624.660140 C1529.913864 615.675521 1528.425094 606.688217 1525.720748 597.984908 C1524.007980 592.472823 1524.064254 585.968734 1516.616867 583.875717 C1511.683395 582.489242 1507.739303 579.342941 1503.969039 575.659469 C1500.795333 572.558700 1495.517867 568.163009 1492.513107 569.023666 C1485.273361 571.097518 1476.781784 570.344283 1470.986007 577.487045 C1467.342697 581.976913 1464.695602 587.182113 1461.018234 591.268844 C1456.920700 595.822677 1456.486251 601.095992 1458.189865 604.824630 C1460.043746 608.882552 1458.995895 612.479354 1459.725021 616.186630 C1460.272262 618.968978 1461.049972 621.765548 1461.117477 624.570419 C1461.256637 630.362777 1461.390182 636.205917 1460.801559 641.953903 C1459.811447 651.620773 1455.070724 660.870162 1457.634445 670.975997 C1457.766281 671.495773 1456.404098 672.394515 1455.737350 675.116805 M1472.737350 746.116744 C1473.737350 745.383834 1474.780441 744.697677 1475.686569 743.862960 C1475.809249 743.750045 1475.245284 742.891769 1474.999191 742.378646 C1473.911910 743.291366 1472.824630 744.204086 1472.737350 746.116744 M1467.737350 565.116805 C1469.055953 564.435409 1470.374679 563.754012 1471.693283 563.072677 C1470.374679 563.087386 1469.055953 563.102096 1467.737350 565.116805 M1478.737350 558.116805 C1477.894454 558.293014 1477.051681 558.469222 1476.208663 558.645431 C1476.326217 559.077194 1476.517745 559.891403 1476.550460 559.885055 C1477.622116 559.677535 1478.678634 559.391403 1478.737350 558.116805 M1433.737350 667.116805 C1434.137374 667.383468 1434.537277 667.650131 1434.937179 667.916793 C1434.870529 667.316818 1434.803878 666.716842 1433.737350 667.116805 M1480.737350 742.116805 C1481.004074 741.716842 1481.270797 741.316818 1481.537399 740.916793 C1480.937423 740.983444 1480.337325 741.050094 1480.737350 742.116805 z"/><path class="selected"  fill="#000000" opacity="1.000000" stroke="none" 
 	d="
M1631.737350 1142.116805 C1611.739303 1142.116805 1592.739181 1142.281478 1573.744552 1142.025009 C1567.346969 1141.938827 1560.977218 1140.555282 1554.570358 1140.175521 C1546.830978 1139.716781 1546.250289 1140.568832 1545.680587 1148.031600 C1545.318160 1152.778182 1543.025680 1157.800033 1544.025070 1162.139633 C1546.085983 1171.088363 1542.325363 1181.305282 1549.656295 1189.115829 C1549.992355 1189.473983 1549.976730 1190.539047 1549.699630 1191.039291 C1545.456222 1198.701766 1549.112106 1205.547836 1551.642379 1212.606551 C1552.277633 1214.378646 1552.557296 1217.171127 1551.604782 1218.474960 C1545.280929 1227.131698 1553.566940 1237.670760 1547.793136 1246.292220 C1547.619308 1246.551742 1548.372848 1247.339950 1548.525924 1247.925521 C1549.585983 1251.982772 1550.601486 1256.051620 1551.631149 1260.116805 C1555.193405 1258.256576 1558.575485 1255.750228 1562.361984 1254.693710 C1567.517623 1253.255111 1572.961959 1252.452743 1578.318771 1252.222396 C1587.301193 1251.836166 1596.315231 1251.990829 1605.309371 1252.200179 C1607.737350 1252.256698 1610.341232 1252.941268 1612.498458 1254.049789 C1614.498947 1255.077987 1616.010543 1257.057357 1617.737350 1258.618026 C1615.927658 1260.451034 1613.675826 1264.136581 1612.377242 1263.826766 C1600.894332 1261.086898 1593.727950 1271.019760 1583.952194 1272.910140 C1582.110519 1273.266219 1580.044113 1274.480819 1578.493575 1273.991927 C1568.505905 1270.843002 1559.878829 1276.354110 1550.857589 1278.483016 C1547.961349 1279.166610 1545.177047 1283.839950 1543.964401 1287.262801 C1542.416915 1291.631332 1542.146041 1296.579940 1542.107955 1301.284896 C1542.095016 1302.885604 1544.286910 1305.710189 1545.757369 1305.914047 C1553.199142 1306.946395 1560.638473 1310.673812 1568.294357 1306.643661 C1569.352218 1306.087020 1571.258590 1305.661971 1571.997238 1306.213607 C1577.973800 1310.677108 1583.429367 1305.134628 1589.223434 1305.465926 C1594.632369 1305.775131 1600.197799 1303.820419 1605.563034 1304.307723 C1613.376144 1305.017440 1616.910568 1312.712875 1613.885177 1319.297592 C1612.310226 1322.725448 1609.566574 1324.104843 1606.877609 1323.951522 C1594.489425 1323.244857 1582.136154 1325.370223 1569.602462 1322.553939 C1562.883468 1321.044051 1555.181442 1324.368026 1547.878707 1324.885116 C1537.728683 1325.603500 1527.477950 1326.553939 1517.384200 1325.825301 C1510.793380 1325.349593 1505.472213 1313.151473 1507.800094 1306.151107 C1509.205856 1301.923812 1507.591720 1297.748641 1507.996017 1293.815170 C1509.757003 1276.680282 1503.558029 1260.407089 1503.318527 1243.456771 C1503.220016 1236.486678 1501.836227 1229.633163 1502.731979 1222.368759 C1503.634933 1215.045150 1501.188156 1207.330917 1501.927535 1199.960189 C1503.864669 1180.654037 1504.915084 1161.178817 1509.834030 1142.286483 C1510.513595 1139.676010 1512.376022 1137.324569 1513.918624 1135.004623 C1514.989303 1133.394149 1516.835861 1132.227523 1517.646163 1130.532943 C1518.834274 1128.047958 1518.636886 1124.165511 1520.443405 1122.905868 C1522.493453 1121.476547 1526.101242 1122.157333 1529.033126 1122.139755 C1539.031661 1122.080062 1549.036178 1122.305038 1559.027267 1122.025619 C1563.099533 1121.911727 1567.123702 1120.487289 1571.206710 1120.218612 C1574.028732 1120.032943 1577.329025 1120.040023 1579.681808 1121.314803 C1584.148727 1123.735214 1588.644454 1124.222885 1593.540328 1124.237899 C1596.601608 1124.247299 1599.637618 1125.584579 1602.726730 1126.045028 C1604.681442 1126.336532 1607.201339 1126.884261 1608.627120 1125.984603 C1615.262374 1121.798690 1621.620162 1126.319686 1628.044845 1125.988876 C1631.299117 1125.821273 1631.854171 1127.698470 1632.317428 1129.764999 C1633.227950 1133.826400 1638.494674 1137.822250 1631.737350 1142.116805 M1540.737350 1134.116805 C1540.508346 1134.345687 1540.223312 1134.543441 1540.071456 1134.815414 C1539.978683 1134.981307 1540.060226 1135.453842 1540.115524 1135.462753 C1541.642623 1135.706405 1543.173019 1135.959213 1544.712814 1136.053451 C1544.909347 1136.065536 1545.158981 1135.214462 1545.383834 1134.763290 C1544.501632 1134.547836 1543.619552 1134.332382 1540.737350 1134.116805 M1575.737350 1127.116927 C1574.678634 1126.842269 1573.622116 1126.556014 1572.550460 1126.348373 C1572.517867 1126.342025 1572.326339 1127.156478 1572.208785 1127.588241 C1573.051681 1127.764388 1573.894454 1127.940658 1575.737350 1127.116927 M1577.737350 1135.116805 C1577.337325 1134.850082 1576.937423 1134.583480 1576.537521 1134.316757 C1576.604171 1134.916732 1576.670822 1135.516830 1577.737350 1135.116805 M1588.737228 1136.116805 C1589.003951 1135.716781 1589.270675 1135.316757 1589.537399 1134.916854 C1588.937423 1134.983505 1588.337325 1135.050155 1588.737228 1136.116805 M1598.737350 1136.116805 C1599.004074 1135.716781 1599.270675 1135.316879 1599.537399 1134.916854 C1598.937423 1134.983505 1598.337325 1135.050155 1598.737350 1136.116805 M1602.737350 1136.116805 C1603.004074 1135.716781 1603.270675 1135.316879 1603.537399 1134.916854 C1602.937423 1134.983505 1602.337325 1135.050155 1602.737350 1136.116805 z"/><path class="selected"  fill="#000000" opacity="1.000000" stroke="none" 
 	d="
M1423.737350 1258.116805 C1419.348190 1272.246444 1416.646163 1285.611678 1417.712936 1299.570541 C1418.350021 1307.905990 1422.713912 1312.301376 1431.254684 1312.024886 C1436.320358 1311.860824 1442.006759 1309.025131 1446.231613 1310.587875 C1450.902877 1312.315536 1455.157394 1311.672592 1459.561935 1312.059432 C1469.255050 1312.910507 1478.973068 1313.872909 1488.685836 1313.928207 C1493.150924 1313.953597 1495.363815 1316.431503 1497.459640 1319.155502 C1498.180831 1320.093002 1497.434860 1323.395126 1496.309738 1324.274520 C1493.475509 1326.489974 1490.253585 1329.825668 1486.251022 1327.486434 C1479.069137 1323.289169 1471.254684 1323.523666 1463.690231 1324.337631 C1457.138351 1325.042587 1450.809371 1326.124740 1444.337936 1324.169662 C1443.117843 1323.801010 1441.256637 1323.557968 1440.426925 1324.203109 C1432.078659 1330.694808 1421.990768 1328.804794 1412.607345 1330.272079 C1409.514816 1330.755721 1406.466476 1331.515731 1403.390182 1332.108871 C1401.531784 1332.467147 1399.566451 1332.493270 1397.816207 1333.128768 C1395.803878 1333.859847 1393.699630 1336.246078 1392.127487 1335.867538 C1389.238571 1335.172347 1386.559005 1333.179427 1384.099777 1331.320419 C1382.990890 1330.482162 1382.598922 1328.677352 1381.919113 1327.292709 C1379.564620 1322.497176 1373.254196 1298.314193 1373.603195 1292.729232 C1374.121017 1284.440414 1372.854904 1275.981918 1373.906784 1267.795883 C1376.777389 1245.455673 1375.304489 1223.066268 1375.737350 1200.701888 C1380.734420 1194.036117 1374.157394 1187.058700 1376.554367 1179.765243 C1378.719894 1173.176620 1376.906784 1165.391586 1377.858322 1158.269027 C1379.726486 1144.287093 1379.460983 1129.791610 1386.178634 1116.825424 C1387.512252 1114.251327 1390.043258 1110.620834 1392.153976 1110.529647 C1395.121627 1110.401229 1399.569503 1112.330184 1401.002975 1114.775253 C1405.816940 1122.987411 1409.818893 1131.713119 1413.599655 1140.472030 C1414.854293 1143.379012 1414.550216 1146.974960 1414.874435 1150.264266 C1415.646408 1158.095809 1421.589401 1164.810653 1419.807784 1173.187240 C1423.325485 1176.002914 1418.903732 1178.513046 1419.501022 1181.590804 C1420.905441 1188.827010 1421.481124 1196.297225 1421.594894 1203.685165 C1421.672531 1208.723129 1418.616500 1214.455306 1420.199630 1218.656967 C1422.086105 1223.663192 1421.179977 1228.256820 1421.684982 1232.986434 C1422.541915 1241.011337 1423.070724 1249.071517 1423.737350 1258.116805 z"/><path class="selected"  fill="#000000" opacity="1.000000" stroke="none" 
 	d="
M1220.237350 750.616805 C1223.458908 750.783492 1226.391891 751.027633 1228.834762 752.250839 C1230.779464 753.224593 1232.549606 755.192062 1233.482955 757.153488 C1233.768966 757.754318 1231.231002 760.666549 1229.645919 761.028060 C1221.453414 762.896468 1213.688888 765.933883 1204.576095 762.582382 C1199.461105 760.701156 1192.318405 762.476302 1186.668136 764.349716 C1178.557662 767.038802 1170.485885 766.023177 1162.441574 765.912277 C1157.857345 765.849105 1154.760177 767.355026 1153.920455 771.203292 C1152.823409 776.230819 1149.678024 776.078475 1145.942672 776.150131 C1133.159469 776.395187 1133.152877 775.416244 1127.490402 764.367782 C1121.769576 753.205184 1121.074874 741.451339 1119.686691 729.590499 C1119.363449 726.828842 1118.614547 724.068588 1117.701217 721.432540 C1113.612472 709.632308 1115.985031 697.687301 1118.171188 686.188278 C1119.218185 680.681991 1119.547042 675.354781 1119.661544 669.945846 C1119.908126 658.293441 1118.737350 646.525436 1119.969528 634.999557 C1121.864303 617.274825 1120.972213 599.538802 1121.996505 581.860214 C1122.513107 572.943588 1126.743331 564.260360 1127.422653 555.329208 C1127.976974 548.043075 1131.157272 543.256454 1136.046310 538.811569 C1141.430221 533.916671 1146.350509 535.326888 1150.557174 541.671859 C1153.283248 545.783492 1153.994552 549.829635 1153.731124 554.382980 C1152.814010 570.232162 1157.766281 585.150192 1160.932540 600.357162 C1161.453781 602.860458 1161.491867 605.465621 1161.735153 608.025375 C1162.248702 613.430648 1160.737228 618.908981 1163.529952 624.291122 C1164.750045 626.642501 1164.554367 630.501876 1163.528243 633.093002 C1160.978439 639.531906 1159.997482 645.178390 1165.237960 650.974288 C1166.588912 652.468429 1166.055831 656.116256 1165.645065 658.654464 C1164.899948 663.259872 1164.019821 667.929061 1162.430099 672.292587 C1159.866989 679.327804 1156.666427 686.038131 1163.163619 692.809371 C1163.979171 693.659225 1163.621993 696.884139 1162.649581 697.989120 C1157.762985 703.541976 1157.290939 708.847885 1159.320602 716.276779 C1161.752365 725.177474 1161.093551 734.927291 1161.720992 744.312911 C1161.875167 746.618575 1161.493698 749.026840 1162.073409 751.196884 C1162.248336 751.851730 1163.095626 753.877792 1166.204879 753.140426 C1171.225265 751.949752 1176.853073 753.298629 1182.221725 753.618575 C1183.156784 753.674301 1184.223068 754.337570 1184.985397 754.057662 C1195.859542 750.064132 1207.121993 753.076888 1218.148971 752.080306 C1218.702926 752.030380 1219.209030 751.450118 1220.237350 750.616805 M1138.737350 546.116805 C1138.688522 546.734664 1138.639694 547.352523 1138.590866 547.970382 C1138.973068 547.352523 1139.355148 546.734664 1140.737350 546.116805 C1140.786178 545.498947 1140.835006 544.881088 1140.883834 544.263229 C1140.501632 544.881088 1140.119552 545.498947 1138.737350 546.116805 M1132.737472 566.116805 C1132.462814 567.175582 1132.176681 568.232040 1131.969039 569.303756 C1131.962692 569.336349 1132.777023 569.527938 1133.208908 569.645431 C1133.385055 568.802596 1133.561202 567.959701 1132.737472 566.116805 M1163.737350 759.116805 C1164.796066 759.391403 1165.852462 759.677657 1166.924240 759.885177 C1166.956832 759.891525 1167.148483 759.077133 1167.265914 758.645431 C1166.423019 758.469222 1165.580245 758.293014 1163.737350 759.116805 M1128.737350 626.116805 C1129.004074 625.716842 1129.270797 625.316818 1129.537399 624.916793 C1128.937423 624.983505 1128.337325 625.050155 1128.737350 626.116805 z"/><path class="selected"  fill="#000000" opacity="1.000000" stroke="none" 
 	d="
M1362.237350 740.616805 C1365.403732 740.116805 1368.518722 739.246139 1370.625534 740.331893 C1373.409591 741.766769 1376.327438 744.343795 1377.509811 747.139510 C1379.081100 750.854476 1373.310348 754.689010 1368.255905 753.630538 C1362.738693 752.475265 1357.190597 750.208785 1351.724044 750.397445 C1345.271408 750.620284 1338.889205 752.943527 1332.481735 754.379623 C1330.048141 754.925094 1327.630294 755.541061 1325.203170 756.115707 C1320.487838 757.232223 1315.556564 758.338424 1313.834396 763.609359 C1312.730392 766.988021 1310.944747 768.061385 1307.524703 768.216476 C1302.526168 768.443038 1298.993331 773.206893 1293.147506 772.326644 C1285.753219 771.213241 1277.558639 765.865096 1275.178024 758.523727 C1272.982711 751.753890 1271.354049 745.054183 1273.565475 737.726058 C1274.821090 733.565902 1271.433639 729.331832 1273.387130 724.300643 C1275.073898 719.956161 1273.737350 714.437911 1273.737350 709.438522 C1273.737350 703.106002 1273.737350 696.773422 1273.737350 690.440902 C1273.737350 688.774459 1273.031784 686.521713 1273.850875 685.535934 C1279.511642 678.723373 1277.180343 670.700729 1277.783370 663.105087 C1278.212692 657.696395 1280.260177 652.152999 1279.523605 646.962325 C1276.867111 628.239120 1274.918258 609.432662 1276.029708 590.613387 C1276.630172 580.446884 1279.727706 570.311080 1282.636154 560.437545 C1284.669601 553.534225 1296.147628 547.315170 1303.201339 548.178878 C1304.347335 548.319259 1305.511398 549.131942 1306.465621 549.888046 C1313.292037 555.298019 1316.099410 566.019515 1316.039596 575.372665 C1315.981368 584.476913 1318.501144 593.584213 1319.704147 602.714584 C1320.543136 609.081588 1321.026412 615.494552 1321.749069 621.877914 C1322.584030 629.253463 1319.809249 636.920516 1323.643722 644.097946 C1324.111373 644.973251 1323.749435 647.091354 1323.009445 647.688278 C1315.786788 653.515060 1317.610641 662.180221 1315.591964 669.691512 C1312.715133 680.396285 1315.777023 690.285995 1317.339401 700.644027 C1318.382125 707.557906 1315.646041 715.045699 1314.577072 722.273055 C1313.397262 730.248885 1315.404464 737.880111 1318.032394 745.152145 C1319.720382 749.823593 1325.836105 749.370101 1328.471359 747.827621 C1338.518844 741.946822 1349.274093 742.168319 1360.150802 742.074569 C1360.682296 742.069991 1361.208663 741.450118 1362.237350 740.616805 M1289.737350 567.116805 C1289.538375 565.584518 1289.339523 564.052291 1289.140548 562.520004 C1288.470260 563.588241 1287.733566 564.621566 1287.148605 565.734664 C1286.595382 566.787338 1285.894699 567.906906 1285.833175 569.028488 C1285.782760 569.947311 1286.577194 570.912399 1286.997116 571.856918 C1287.910446 570.943527 1288.823898 570.030135 1289.737350 567.116805 M1290.737350 766.116805 C1290.404098 765.450118 1290.070724 764.783431 1289.737472 764.116866 C1289.404098 764.783492 1289.070724 765.450179 1290.737350 766.116805 M1290.737472 560.116866 C1291.004074 559.716842 1291.270797 559.316818 1291.537399 558.916793 C1290.937423 558.983444 1290.337325 559.050155 1290.737472 560.116866 M1304.737350 560.116805 C1305.004074 559.716781 1305.270675 559.316818 1305.537399 558.916854 C1304.937423 558.983505 1304.337325 559.050155 1304.737350 560.116805 M1297.737350 561.116805 C1298.137374 561.383468 1298.537277 561.650131 1298.937179 561.916793 C1298.870529 561.316818 1298.803878 560.716781 1297.737350 561.116805 z"/><path class="selected"  fill="#000000" opacity="1.000000" stroke="none" 
 	d="
M1869.237350 1290.616805 C1869.737350 1291.450057 1869.591598 1291.930648 1869.758224 1292.095565 C1878.404708 1300.656967 1876.655807 1310.572982 1873.801193 1320.816390 C1872.067672 1327.036727 1867.458663 1329.251815 1861.946212 1330.038558 C1855.222701 1330.998519 1849.057418 1329.581771 1844.527023 1323.913436 C1844.320358 1323.654647 1843.833541 1323.413925 1843.856491 1323.207015 C1844.702194 1315.593856 1844.169479 1307.411849 1846.933151 1300.561141 C1849.093795 1295.205551 1855.030685 1291.102645 1859.896774 1287.200057 C1863.391769 1284.396957 1865.891403 1288.698104 1869.237350 1290.616805 M1861.737350 1319.116805 C1861.320724 1318.200179 1860.903976 1317.283431 1860.487350 1316.366805 C1859.070114 1317.449569 1857.652755 1318.532211 1856.235519 1319.615096 C1857.736129 1319.782333 1859.236740 1319.949569 1861.737350 1319.116805 z"/><path class="selected"  fill="#000000" opacity="1.000000" stroke="none" 
 	d="
M1911.237350 876.616805 C1913.840743 879.220199 1916.195236 881.138778 1917.938156 883.507430 C1918.769454 884.637191 1919.072921 886.934432 1918.477584 888.142074 C1917.699630 889.720321 1918.109786 893.069259 1914.473312 892.142013 C1908.481124 890.613998 1902.302291 889.668624 1896.484786 887.659225 C1892.774948 886.377853 1888.747238 884.267196 1886.431075 881.302535 C1884.833785 879.258224 1881.466842 875.950912 1884.736373 872.004073 C1887.596359 868.551254 1893.657272 865.296005 1897.054855 866.502670 C1902.463180 868.423568 1908.116622 870.160568 1911.237350 876.616805 z"/><path class="selected"  fill="#000000" opacity="1.000000" stroke="none" 
 	d="
M255.237350 1755.616805 C249.355453 1761.408553 244.598800 1766.957015 245.643081 1775.349716 C245.747451 1776.188461 244.538650 1777.190536 243.939285 1778.116805 C243.205306 1777.325057 242.027419 1776.639755 241.808334 1775.724838 C240.203903 1769.024520 243.824233 1764.028671 247.672500 1759.259017 C249.541397 1756.942489 251.753738 1754.864120 254.018081 1752.919540 C255.516799 1751.632064 256.510940 1748.351791 259.504135 1750.883529 C258.248519 1752.294662 256.992935 1753.705673 255.237350 1755.616805 z"/><path class="selected"  fill="#000000" opacity="1.000000" stroke="none" 
 	d="
M485.737350 1018.116805 C482.460983 1019.535385 480.902145 1017.166854 481.899459 1014.948226 C484.558517 1009.032699 483.431137 1002.963607 483.767623 996.946945 C483.817245 996.058090 484.271652 995.192001 484.538803 994.315353 C484.938339 995.333907 485.667526 996.347152 485.683822 997.371810 C485.788680 1003.952010 485.737350 1010.534896 485.737350 1018.116805 z"/><path class="selected"  fill="#000000" opacity="1.000000" stroke="none" 
 	d="
M5.737365 980.116805 C8.404022 980.599655 11.281410 980.751632 11.520042 981.624740 C12.383697 984.784835 9.625369 984.027267 7.839927 984.108810 C6.864841 984.153365 5.766151 983.829452 4.933933 984.176742 C3.208030 984.896957 1.592571 988.653610 0.018344 984.582504 C-0.277764 983.816696 3.070705 981.641586 5.737365 980.116805 z"/><path class="selected"  fill="#000000" opacity="1.000000" stroke="none" 
 	d="
M1569.237350 2.616784 C1569.215988 3.450096 1568.522750 4.189220 1568.200485 4.052772 C1565.559249 2.934017 1562.497360 7.986358 1560.216842 3.529813 C1559.841110 2.795490 1559.766159 1.081121 1560.028976 0.972423 C1563.095992 -0.296132 1566.181686 -0.833478 1569.237350 2.616784 z"/><path class="selected"  fill="#000000" opacity="1.000000" stroke="none" 
 	d="
M274.237350 1748.616805 C275.698654 1748.116805 276.677535 1747.999740 277.617599 1748.140975 C279.621322 1748.442123 281.604934 1748.877181 283.596816 1749.257308 C282.495254 1749.692245 281.233627 1749.914657 280.321700 1750.601425 C277.449630 1752.764510 274.910324 1754.187850 274.237350 1748.616805 z"/><path class="selected"  fill="#000000" opacity="1.000000" stroke="none" 
 	d="
M295.737350 768.116805 C295.703018 769.450118 294.668716 770.783492 293.634384 772.116805 C293.002029 771.588241 292.369674 771.059615 291.737319 770.530990 C292.737319 769.726241 293.737319 768.921493 295.737350 768.116805 z"/><path class="selected"  fill="#000000" opacity="1.000000" stroke="none" 
 	d="
M2441.737350 1084.116805 C2442.403854 1084.783431 2442.070602 1085.450057 2441.737350 1086.116805 C2441.404098 1085.450179 2441.070602 1084.783431 2441.737350 1084.116805 z"/><path class="selected"  fill="#000000" opacity="1.000000" stroke="none" 
 	d="
M1075.237350 1003.616805 C1074.670700 1003.516830 1074.604049 1002.916732 1074.537399 1002.316757 C1074.937423 1002.583480 1075.337325 1002.850082 1075.237350 1003.616805 z"/><path class="selected"  fill="#000000" opacity="1.000000" stroke="none" 
 	d="
M2073.237350 1437.616805 C2072.670700 1437.516830 2072.604049 1436.916732 2072.537399 1436.316757 C2072.937301 1436.583480 2073.337448 1436.850204 2073.237350 1437.616805 z"/><path class="selected"  fill="#000000" opacity="1.000000" stroke="none" 
 	d="
M242.237350 729.616805 C242.337356 729.050155 242.937332 728.983505 243.537338 728.916793 C243.270675 729.316818 243.004013 729.716781 242.237350 729.616805 z"/></svg>